<svg width="686" height="638" viewBox="0 0 686 638" fill="none" xmlns="http://www.w3.org/2000/svg">
<path d="M585.313 300.009C719.216 377.385 719.202 502.593 585.313 579.968C451.425 657.344 234.323 657.344 100.421 579.968C-33.4808 502.593 -33.4668 377.385 100.421 300.009C234.309 222.633 451.411 222.704 585.313 300.009Z" fill="#FAFAFA"/>
<path d="M630.543 490.142L413.68 615.35C410.81 616.807 407.636 617.566 404.416 617.566C401.197 617.566 398.023 616.807 395.152 615.35L68.5286 426.779C63.4077 423.824 63.4077 419.027 68.5286 416.073L285.391 290.865C288.262 289.408 291.436 288.648 294.655 288.648C297.875 288.648 301.049 289.408 303.919 290.865L630.543 479.38C635.664 482.391 635.664 487.188 630.543 490.142Z" fill="#E0E0E0"/>
<path d="M531.967 614.703L543.798 607.81L543.221 603.462L547.217 601.212L556.6 600.353L563.114 596.555L563.465 588.198L566.94 586.173L577.07 588.423L590.223 580.77C594.854 581.711 599.567 582.183 604.292 582.177V582.177C615.546 582.177 626.224 579.589 634.285 574.89C643.022 569.811 647.819 562.819 647.791 555.194C647.763 547.569 642.923 540.633 634.145 535.611C626.182 531.053 615.687 528.577 604.601 528.577C593.515 528.577 582.655 531.165 574.579 535.864C566.94 540.31 562.213 546.401 561.271 553C560.712 557.197 561.627 561.458 563.859 565.056L493.194 606.192L508.261 614.844L531.967 614.703ZM621.539 549.103C621.241 549.463 620.872 549.76 620.456 549.975C618.671 550.84 616.714 551.29 614.73 551.29C612.747 551.29 610.789 550.84 609.005 549.975C608.583 549.769 608.213 549.471 607.921 549.103C608.21 548.737 608.575 548.439 608.991 548.23C610.778 547.365 612.738 546.915 614.723 546.915C616.709 546.915 618.669 547.365 620.456 548.23C620.872 548.445 621.241 548.742 621.539 549.103V549.103Z" fill="#E0E0E0"/>
<path d="M110.902 404.241C74.7964 404.241 45.5268 387.342 45.5268 366.496C45.5268 345.65 74.7964 328.751 110.902 328.751C147.008 328.751 176.278 345.65 176.278 366.496C176.278 387.342 147.008 404.241 110.902 404.241Z" fill="#E0E0E0"/>
<path d="M70.7653 414.665L82.8781 407.631C82.8781 407.631 90.0951 377.652 87.2252 350.683C83.1876 312.769 58.2163 298.504 48.7343 301.767C39.2523 305.031 36.4949 316.075 52.1951 338.654C61.4943 352.019 72.8474 379.776 70.7653 414.665Z" fill="#3DC2EC"/>
<g opacity="0.65">
<path opacity="0.65" d="M70.7653 414.665L82.8781 407.631C82.8781 407.631 90.0952 377.652 87.2252 350.683C83.1876 312.769 58.2164 298.503 48.7343 301.767C39.2523 305.031 36.495 316.075 52.1952 338.654C61.4943 352.019 72.8474 379.776 70.7653 414.665Z" fill="white"/>
</g>
<path d="M75.7877 399.95H75.6751C75.5661 399.93 75.4622 399.888 75.3692 399.828C75.2763 399.767 75.1962 399.689 75.1335 399.598C75.0708 399.506 75.0267 399.403 75.0037 399.295C74.9808 399.186 74.9795 399.074 74.9999 398.965C81.6401 363.991 69.3726 324.699 54.3054 308.337C54.2272 308.26 54.165 308.168 54.1226 308.067C54.0802 307.965 54.0583 307.856 54.0583 307.746C54.0583 307.636 54.0802 307.528 54.1226 307.426C54.165 307.325 54.2272 307.233 54.3054 307.155C54.4632 307.001 54.6753 306.914 54.8963 306.914C55.1172 306.914 55.3294 307.001 55.4872 307.155C70.8919 323.812 83.3565 363.752 76.5896 399.232C76.5629 399.428 76.4676 399.607 76.3206 399.739C76.1737 399.87 75.9848 399.945 75.7877 399.95V399.95Z" fill="white"/>
<path d="M40.2653 432.279C38.4504 433.208 33.6391 429.086 32.3026 428.059C29.9959 426.328 28.182 424.024 27.0411 421.376C25.7462 418.376 25.4215 415.046 26.1125 411.852C26.4634 410.165 26.9335 408.506 27.5194 406.886L29.1372 402.089C29.7917 400.545 30.1221 398.883 30.1079 397.207C29.8406 393.859 26.9989 391.368 24.4103 389.216C21.5966 386.838 18.6001 383.729 18.783 379.72C19.1613 376.614 20.5561 373.721 22.7502 371.49C24.7901 369.155 27.1817 367.115 29.0387 364.639C30.4957 362.921 31.3199 360.756 31.3741 358.505C31.2588 357.119 30.8665 355.77 30.2205 354.538C28.9262 351.851 27.1817 349.361 26.3517 346.505C25.5217 343.649 25.8171 340.146 28.1243 338.247C29.9954 336.699 32.6824 336.601 35.1585 336.84C37.4256 337.238 39.5801 338.121 41.4751 339.428C47.6652 343.297 50.929 351.035 57.5552 354.102C60.2196 355.092 62.9451 355.91 65.7148 356.549C68.4019 357.408 71.103 358.941 72.2425 361.516C74.4653 366.608 69.5555 372.489 71.0326 377.835C72.341 382.576 76.7865 384.588 79.1078 388.921C80.0531 390.827 80.3636 392.987 79.9941 395.083C79.5888 398.633 78.54 402.08 76.8991 405.254C75.0546 408.514 73.0108 411.657 70.7794 414.666C70.7794 414.666 40.5466 432.138 40.2653 432.279Z" fill="#3DC2EC"/>
<g opacity="0.3">
<path opacity="0.3" d="M40.2653 432.279C38.4504 433.208 33.6391 429.086 32.3026 428.059C29.9959 426.328 28.182 424.024 27.0411 421.376C25.7462 418.376 25.4215 415.046 26.1125 411.852C26.4634 410.165 26.9335 408.506 27.5194 406.886L29.1372 402.088C29.7917 400.545 30.1221 398.883 30.1079 397.207C29.8406 393.858 26.9989 391.368 24.4103 389.216C21.5966 386.838 18.6001 383.729 18.783 379.72C19.1613 376.614 20.5561 373.72 22.7502 371.49C24.7901 369.155 27.1817 367.115 29.0387 364.639C30.4957 362.921 31.3199 360.756 31.3741 358.505C31.2588 357.119 30.8665 355.769 30.2205 354.538C28.9262 351.851 27.1817 349.36 26.3517 346.505C25.5217 343.649 25.8171 340.146 28.1243 338.246C29.9954 336.699 32.6824 336.601 35.1585 336.84C37.4256 337.238 39.5801 338.121 41.4751 339.428C47.6652 343.297 50.929 351.035 57.5552 354.101C60.2196 355.092 62.9451 355.91 65.7148 356.549C68.4019 357.407 71.103 358.941 72.2425 361.515C74.4653 366.608 69.5555 372.489 71.0326 377.835C72.341 382.576 76.7865 384.587 79.1078 388.92C80.0531 390.827 80.3636 392.986 79.9941 395.082C79.5888 398.633 78.54 402.079 76.8991 405.254C75.0546 408.514 73.0108 411.657 70.7794 414.665C70.7794 414.665 40.5466 432.138 40.2653 432.279Z" fill="white"/>
</g>
<path d="M57.8084 423.135C57.5981 423.117 57.4033 423.017 57.2663 422.856C57.1293 422.695 57.0613 422.487 57.0768 422.277C59.989 390.82 46.8914 355.269 36.5934 344.605C36.4465 344.458 36.364 344.258 36.364 344.05C36.364 343.841 36.4465 343.642 36.5934 343.494C36.7434 343.346 36.9456 343.263 37.1562 343.263C37.3667 343.263 37.5689 343.346 37.7189 343.494C48.2138 354.369 61.635 390.51 58.6384 422.403C58.624 422.61 58.5288 422.802 58.3735 422.939C58.2181 423.076 58.0151 423.146 57.8084 423.135Z" fill="white"/>
<path d="M54.6852 384.348C54.6061 384.362 54.5252 384.362 54.446 384.348C47.0805 381.914 39.4714 380.292 31.7539 379.509C31.5434 379.487 31.3499 379.384 31.2155 379.22C31.0811 379.057 31.0168 378.847 31.0364 378.637C31.0432 378.531 31.0716 378.428 31.1199 378.334C31.1682 378.239 31.2353 378.156 31.317 378.089C31.3988 378.022 31.4935 377.972 31.5952 377.943C31.697 377.913 31.8037 377.905 31.9086 377.919C39.7602 378.724 47.501 380.38 54.9947 382.857C55.1909 382.93 55.3507 383.077 55.4401 383.266C55.5294 383.455 55.5413 383.672 55.473 383.87C55.4086 384.022 55.2978 384.151 55.1564 384.236C55.015 384.322 54.8501 384.361 54.6852 384.348V384.348Z" fill="white"/>
<path d="M623.917 474.161C623.917 479.338 620.048 485.753 615.279 488.51L413.131 605.277C410.455 606.637 407.495 607.345 404.494 607.345C401.492 607.345 398.532 606.637 395.856 605.277L80.5146 423.107C75.7454 420.293 71.8767 413.934 71.8767 408.771C71.8767 403.608 75.7454 397.179 80.5146 394.422L282.662 277.655C285.339 276.295 288.298 275.587 291.3 275.587C294.302 275.587 297.261 276.295 299.938 277.655L615.279 459.769C620.006 462.526 623.917 468.941 623.917 474.161Z" fill="#37474F"/>
<path d="M617.558 470.489L415.411 587.256C412.734 588.615 409.775 589.323 406.773 589.323C403.771 589.323 400.811 588.615 398.135 587.256L82.7938 405.226C78.0247 402.412 78.0247 398.009 82.7938 395.252L284.955 278.485C287.629 277.126 290.587 276.417 293.586 276.417C296.586 276.417 299.543 277.126 302.217 278.485L617.558 460.528C622.327 463.272 622.327 467.746 617.558 470.489Z" fill="#455A64"/>
<path d="M404.479 588.536V607.233C407.487 607.293 410.459 606.586 413.117 605.179L615.279 488.412C620.048 485.598 623.917 479.24 623.917 474.076C623.917 469.223 620.498 463.286 616.151 460.29C620.02 463.103 619.725 467.127 615.279 469.701L413.117 586.468C410.463 587.886 407.488 588.599 404.479 588.536V588.536Z" fill="#263238"/>
<path d="M296.519 4.09659C300.557 0.87495 307.507 0.903087 312.276 3.64641L627.603 185.761C630.118 187.401 632.21 189.612 633.711 192.212C635.212 194.813 636.079 197.731 636.241 200.729L636.241 447.628C636.241 453.129 632.808 459.192 627.983 461.049C622.89 463.005 620.006 462.456 615.237 459.727L299.938 277.711C297.425 276.072 295.333 273.864 293.833 271.265C292.332 268.667 291.464 265.752 291.3 262.756L291.3 15.7874C291.3 10.2866 292.299 7.45891 296.519 4.09659Z" fill="#37474F"/>
<path d="M291.3 15.7873C291.3 10.2866 295.169 8.06377 299.938 10.8071L615.279 192.865C617.844 194.455 619.957 196.679 621.413 199.322L633.737 192.162C632.272 189.539 630.16 187.336 627.603 185.76L312.276 3.64632C307.507 0.832659 300.543 0.832661 296.533 4.08244C292.214 7.5151 291.3 10.2866 291.3 15.7873Z" fill="#455A64"/>
<path d="M623.875 454.76L623.875 207.82C623.759 204.837 622.888 201.932 621.342 199.379V199.379L633.666 192.232C635.217 194.783 636.089 197.689 636.199 200.673L636.199 447.656C636.199 453.157 632.766 459.22 627.94 461.077C622.848 463.033 619.964 462.484 615.195 459.755C620.006 462.498 623.875 460.261 623.875 454.76Z" fill="#263238"/>
<path d="M610.636 202.825L307.169 27.6749C304.355 26.0148 301.992 27.3654 301.992 30.6714L301.992 260.322C302.087 262.12 302.606 263.87 303.506 265.43C304.405 266.99 305.661 268.315 307.169 269.298L610.636 444.462C613.45 446.108 615.814 444.772 615.814 441.466L615.814 211.801C615.715 210.004 615.195 208.255 614.295 206.696C613.396 205.137 612.143 203.811 610.636 202.825V202.825Z" fill="black"/>
<path d="M610.636 202.825C612.137 203.814 613.385 205.141 614.28 206.7C615.174 208.259 615.69 210.006 615.785 211.801L615.785 437.471L315.821 264.318C314.311 263.336 313.053 262.011 312.151 260.451C311.249 258.892 310.728 257.141 310.63 255.342L310.63 29.6727L610.636 202.825Z" fill="white"/>
<path d="M588.605 461.232L298.798 293.932C297.536 293.294 296.141 292.961 294.726 292.961C293.311 292.961 291.916 293.294 290.653 293.932L280.088 299.854C277.851 301.149 277.851 303.259 280.088 304.553L569.895 471.825C571.155 472.47 572.551 472.806 573.967 472.806C575.383 472.806 576.779 472.47 578.04 471.825L588.549 465.931C590.856 464.636 590.856 462.54 588.605 461.232Z" fill="#263238"/>
<path d="M560.145 478.015L270.338 310.715C269.214 310.075 267.957 309.705 266.665 309.634C265.374 309.563 264.083 309.793 262.896 310.307L187.476 353.919C185.605 354.988 185.928 356.915 188.179 358.21L477.649 525.228C478.77 525.874 480.028 526.249 481.32 526.322C482.612 526.395 483.903 526.165 485.091 525.651L560.835 482.306C562.706 481.195 562.326 479.324 560.145 478.015Z" fill="#263238"/>
<path d="M309.096 380.986L300.036 375.753C299.642 375.528 299.614 375.19 299.952 374.993L308.632 369.971C308.836 369.863 309.063 369.806 309.293 369.806C309.524 369.806 309.751 369.863 309.955 369.971L318.944 375.261C319.324 375.486 319.352 375.823 319.015 376.02L310.334 381.029C310.139 381.117 309.925 381.158 309.711 381.151C309.496 381.144 309.286 381.087 309.096 380.986V380.986ZM322.349 362.866L331.423 368.1C331.803 368.325 331.845 368.663 331.507 368.86L322.827 373.868C322.624 373.976 322.396 374.033 322.166 374.033C321.935 374.033 321.708 373.976 321.505 373.868L312.431 368.634C312.051 368.409 312.009 368.072 312.346 367.875L321.026 362.852C321.224 362.756 321.441 362.706 321.661 362.709C321.881 362.711 322.097 362.765 322.292 362.866H322.349ZM351.667 379.748L367.016 388.611C367.41 388.837 367.438 389.174 367.1 389.371L358.42 394.379C358.216 394.488 357.989 394.545 357.759 394.545C357.528 394.545 357.301 394.488 357.097 394.379L341.749 385.516C341.355 385.291 341.327 384.954 341.665 384.757L350.345 379.734C350.545 379.644 350.765 379.602 350.984 379.612C351.204 379.622 351.419 379.683 351.611 379.791L351.667 379.748ZM335.615 370.477L344.689 375.711C345.069 375.936 345.111 376.274 344.76 376.471L336.079 381.479C335.876 381.587 335.649 381.644 335.418 381.644C335.188 381.644 334.961 381.587 334.757 381.479L325.697 376.245C325.303 376.02 325.275 375.683 325.613 375.486L334.293 370.477C334.492 370.385 334.711 370.341 334.931 370.348C335.151 370.355 335.366 370.414 335.559 370.52L335.615 370.477ZM371.208 391.031L380.282 396.265C380.662 396.49 380.704 396.827 380.352 397.024L371.672 402.033C371.47 402.139 371.246 402.194 371.018 402.194C370.79 402.194 370.566 402.139 370.364 402.033L361.29 396.799C360.896 396.574 360.868 396.236 361.205 396.04L369.886 391.017C370.086 390.927 370.305 390.885 370.525 390.895C370.745 390.904 370.96 390.966 371.152 391.073L371.208 391.031ZM384.46 398.684L393.506 403.96C393.9 404.185 393.928 404.523 393.591 404.72L384.91 409.728C384.707 409.836 384.48 409.893 384.249 409.893C384.019 409.893 383.792 409.836 383.588 409.728L374.514 404.495C374.134 404.269 374.092 403.932 374.514 403.735L383.194 398.727C383.383 398.637 383.59 398.59 383.799 398.59C384.008 398.59 384.215 398.637 384.404 398.727L384.46 398.684ZM350.443 419.126L341.369 413.892C340.989 413.667 340.947 413.329 341.299 413.132L349.894 408.166C350.098 408.058 350.325 408.001 350.556 408.001C350.786 408.001 351.013 408.058 351.217 408.166L360.291 413.4C360.685 413.625 360.713 413.963 360.375 414.159L351.695 419.182C351.492 419.286 351.267 419.339 351.039 419.336C350.811 419.334 350.588 419.276 350.387 419.168L350.443 419.126ZM363.71 426.793L354.635 421.545C354.242 421.32 354.213 420.983 354.551 420.786L363.231 415.777C363.435 415.669 363.662 415.612 363.892 415.612C364.123 415.612 364.35 415.669 364.554 415.777L373.628 421.011C374.008 421.236 374.05 421.588 373.628 421.784L364.948 426.793C364.749 426.898 364.53 426.956 364.305 426.963C364.081 426.971 363.858 426.927 363.653 426.835L363.71 426.793ZM376.962 434.446L367.888 429.199C367.508 428.987 367.466 428.636 367.818 428.439L376.441 423.515C376.645 423.414 376.869 423.362 377.096 423.362C377.322 423.362 377.546 423.414 377.75 423.515L386.824 428.762C387.218 428.987 387.246 429.325 386.908 429.522L378.228 434.53C378.021 434.632 377.792 434.682 377.562 434.674C377.331 434.667 377.106 434.603 376.906 434.488L376.962 434.446ZM390.228 442.099L381.154 436.866C380.76 436.641 380.732 436.303 381.07 436.106L389.75 431.084C389.954 430.975 390.181 430.919 390.411 430.919C390.642 430.919 390.869 430.975 391.072 431.084L400.146 436.317C400.526 436.542 400.569 436.88 400.146 437.077L391.466 442.085C391.271 442.197 391.051 442.261 390.826 442.271C390.601 442.281 390.376 442.236 390.172 442.141L390.228 442.099ZM322.363 388.64L313.289 383.406C312.909 383.181 312.867 382.843 313.218 382.647L321.899 377.638C322.1 377.532 322.325 377.477 322.553 377.477C322.781 377.477 323.005 377.532 323.207 377.638L332.281 382.872C332.675 383.097 332.703 383.434 332.365 383.631L323.685 388.64C323.475 388.758 323.237 388.82 322.996 388.82C322.754 388.82 322.517 388.758 322.307 388.64H322.363ZM337.177 411.515L316.946 399.838C316.553 399.613 316.524 399.261 316.862 399.064L337.965 386.895C338.166 386.789 338.391 386.734 338.619 386.734C338.847 386.734 339.071 386.789 339.273 386.895L349.74 392.93C350.134 393.156 350.162 393.493 349.824 393.69L338.668 400.133C338.316 400.33 338.358 400.682 338.738 400.893L347.179 405.733C347.559 405.958 347.587 406.295 347.25 406.492L338.569 411.501C338.352 411.634 338.102 411.706 337.847 411.709C337.592 411.711 337.341 411.644 337.12 411.515H337.177ZM397.67 406.38L406.744 411.613C407.124 411.838 407.167 412.176 406.815 412.373L398.135 417.395C397.933 417.501 397.708 417.557 397.481 417.557C397.253 417.557 397.028 417.501 396.826 417.395L387.752 412.162C387.358 411.937 387.33 411.599 387.668 411.402L396.32 406.338C396.537 406.22 396.782 406.163 397.029 406.17C397.276 406.177 397.517 406.25 397.727 406.38H397.67ZM410.937 414.033L420.011 419.294C420.391 419.505 420.419 419.857 420.011 420.054L411.331 425.062C411.127 425.171 410.9 425.228 410.67 425.228C410.439 425.228 410.212 425.171 410.008 425.062L400.934 419.815C400.554 419.604 400.526 419.252 400.864 419.055L409.544 414.047C409.755 413.924 409.994 413.858 410.239 413.855C410.483 413.853 410.723 413.914 410.937 414.033V414.033ZM484.317 495.784C484.114 495.892 483.887 495.949 483.656 495.949C483.425 495.949 483.198 495.892 482.995 495.784L473.921 490.55C473.541 490.325 473.499 489.988 473.836 489.791L482.516 484.782C482.72 484.674 482.947 484.617 483.178 484.617C483.408 484.617 483.635 484.674 483.839 484.782L492.913 490.016C493.293 490.241 493.335 490.578 492.997 490.775L484.317 495.784ZM517.012 475.286L526.086 480.52C526.48 480.745 526.508 481.082 526.17 481.279L517.49 486.288C517.287 486.396 517.06 486.453 516.829 486.453C516.598 486.453 516.371 486.396 516.168 486.288L507.094 481.054C506.714 480.829 506.672 480.492 507.023 480.295L515.704 475.286C515.905 475.18 516.13 475.125 516.358 475.125C516.586 475.125 516.81 475.18 517.012 475.286ZM500.13 490.635C499.926 490.743 499.699 490.8 499.469 490.8C499.238 490.8 499.011 490.743 498.807 490.635L489.733 485.387C489.354 485.176 489.325 484.825 489.733 484.628L498.414 479.619C498.617 479.511 498.844 479.454 499.075 479.454C499.305 479.454 499.532 479.511 499.736 479.619L508.866 484.867C509.246 485.092 509.274 485.429 508.866 485.626L500.13 490.635ZM463.552 498.865L454.478 493.631C454.098 493.406 454.07 493.069 454.478 492.858L463.158 487.849C463.364 487.749 463.59 487.696 463.82 487.696C464.049 487.696 464.275 487.749 464.481 487.849L473.555 493.097C473.935 493.322 473.963 493.659 473.625 493.856L464.945 498.865C464.74 498.976 464.51 499.034 464.277 499.034C464.044 499.034 463.814 498.976 463.609 498.865H463.552ZM478.197 506.518C477.994 506.626 477.767 506.683 477.536 506.683C477.306 506.683 477.079 506.626 476.875 506.518L467.801 501.284C467.421 501.059 467.379 500.722 467.717 500.525L476.411 495.502C476.612 495.396 476.837 495.341 477.065 495.341C477.293 495.341 477.517 495.396 477.719 495.502L486.793 500.736C487.187 500.961 487.215 501.299 486.878 501.495L478.197 506.518ZM503.76 467.591L512.834 472.824C513.213 473.049 513.256 473.387 512.904 473.584L504.224 478.592C504.022 478.698 503.798 478.754 503.57 478.754C503.342 478.754 503.117 478.698 502.915 478.592L493.841 473.359C493.447 473.134 493.419 472.796 493.757 472.599L502.437 467.577C502.645 467.477 502.875 467.43 503.105 467.44C503.336 467.45 503.561 467.516 503.76 467.633V467.591ZM437.456 429.311L446.53 434.544C446.91 434.77 446.952 435.107 446.6 435.304L437.92 440.312C437.718 440.418 437.494 440.474 437.266 440.474C437.038 440.474 436.813 440.418 436.612 440.312L427.537 435.079C427.144 434.854 427.115 434.516 427.453 434.319L436.133 429.297C436.341 429.197 436.571 429.15 436.801 429.16C437.032 429.17 437.257 429.236 437.456 429.353V429.311ZM490.493 459.924L499.567 465.171C499.947 465.396 499.989 465.734 499.652 465.931L490.971 470.939C490.768 471.048 490.541 471.104 490.31 471.104C490.08 471.104 489.853 471.048 489.649 470.939L480.575 465.706C480.195 465.481 480.153 465.143 480.491 464.932L489.171 459.924C489.38 459.83 489.608 459.784 489.837 459.792C490.066 459.799 490.29 459.859 490.493 459.966V459.924ZM424.189 421.644L433.263 426.891C433.657 427.116 433.685 427.454 433.348 427.651L424.668 432.659C424.464 432.768 424.237 432.824 424.006 432.824C423.776 432.824 423.549 432.768 423.345 432.659L414.271 427.426C413.891 427.201 413.849 426.863 414.187 426.652L422.867 421.644C423.076 421.55 423.304 421.505 423.533 421.512C423.762 421.519 423.987 421.579 424.189 421.686V421.644ZM450.708 436.964L459.782 442.198C460.176 442.423 460.204 442.76 459.866 442.957L451.186 447.966C450.983 448.074 450.756 448.131 450.525 448.131C450.294 448.131 450.067 448.074 449.864 447.966L440.79 442.732C440.41 442.507 440.368 442.169 440.719 441.973L449.4 436.964C449.605 436.865 449.831 436.816 450.059 436.824C450.287 436.831 450.51 436.894 450.708 437.006V436.964ZM463.974 444.617L473.048 449.851C473.428 450.076 473.47 450.414 473.119 450.61L464.439 455.633C464.235 455.733 464.011 455.786 463.784 455.786C463.558 455.786 463.334 455.733 463.13 455.633L454 450.385C453.606 450.16 453.578 449.823 453.916 449.626L462.652 444.617C462.855 444.509 463.083 444.452 463.313 444.452C463.544 444.452 463.771 444.509 463.974 444.617V444.617ZM477.241 452.271L486.357 457.56C486.751 457.771 486.779 458.123 486.441 458.32L477.761 463.328C477.558 463.437 477.331 463.493 477.1 463.493C476.869 463.493 476.642 463.437 476.439 463.328L467.365 458.081C466.985 457.87 466.957 457.518 467.294 457.321L475.975 452.313C476.171 452.214 476.388 452.162 476.608 452.162C476.828 452.162 477.044 452.214 477.241 452.313V452.271ZM416.747 457.405L407.575 452.214C407.195 451.989 407.152 451.651 407.49 451.455L416.17 446.446C416.374 446.338 416.601 446.281 416.831 446.281C417.062 446.281 417.289 446.338 417.493 446.446L426.567 451.68C426.961 451.905 426.989 452.242 426.651 452.439L417.971 457.462C417.772 457.561 417.552 457.611 417.329 457.609C417.107 457.606 416.888 457.551 416.691 457.448L416.747 457.405ZM293.03 345.9L302.062 351.176C302.456 351.401 302.484 351.738 302.147 351.935L293.467 356.944C293.263 357.052 293.036 357.109 292.805 357.109C292.575 357.109 292.348 357.052 292.144 356.944L283.07 351.71C282.69 351.485 282.648 351.148 283 350.951L291.68 345.928C291.881 345.827 292.103 345.775 292.329 345.778C292.554 345.78 292.775 345.836 292.974 345.942L293.03 345.9ZM309.082 355.157L318.156 360.405C318.55 360.63 318.578 360.967 318.241 361.164L309.561 366.172C309.357 366.281 309.13 366.338 308.899 366.338C308.669 366.338 308.442 366.281 308.238 366.172L299.164 360.939C298.784 360.714 298.742 360.376 299.164 360.165L307.69 355.157C307.9 355.058 308.131 355.011 308.363 355.018C308.595 355.026 308.822 355.088 309.026 355.199L309.082 355.157ZM279.778 338.275L288.852 343.523C289.232 343.748 289.274 344.085 288.922 344.282L280.242 349.291C280.041 349.397 279.816 349.452 279.588 349.452C279.36 349.452 279.136 349.397 278.934 349.291L269.86 344.057C269.466 343.832 269.438 343.494 269.775 343.283L278.456 338.275C278.654 338.183 278.87 338.135 279.089 338.135C279.307 338.135 279.523 338.183 279.722 338.275H279.778ZM353.074 406.366L344 401.132C343.62 400.907 343.578 400.569 343.915 400.373L352.539 395.378C352.743 395.27 352.97 395.213 353.201 395.213C353.431 395.213 353.658 395.27 353.862 395.378L362.936 400.612C363.316 400.837 363.358 401.174 363.02 401.371L354.34 406.394C354.134 406.498 353.906 406.55 353.675 406.545C353.445 406.54 353.219 406.478 353.018 406.366H353.074ZM265.203 330.58C265.405 330.474 265.63 330.418 265.857 330.418C266.085 330.418 266.31 330.474 266.512 330.58L275.586 335.827C275.98 336.038 276.008 336.39 275.67 336.587L266.891 341.637C266.688 341.746 266.461 341.802 266.23 341.802C266 341.802 265.773 341.746 265.569 341.637L256.495 336.39C256.115 336.179 256.073 335.827 256.425 335.63L265.203 330.58ZM403.354 449.794L394.35 444.617C393.97 444.392 393.942 444.055 394.35 443.858L403.03 438.849C403.234 438.741 403.461 438.684 403.692 438.684C403.922 438.684 404.149 438.741 404.353 438.849L413.427 444.083C413.807 444.308 413.835 444.645 413.427 444.842L404.747 449.851C404.53 449.963 404.287 450.017 404.043 450.007C403.799 449.997 403.561 449.924 403.354 449.794V449.794ZM240.739 355.903L231.664 350.669C231.285 350.444 231.242 350.107 231.594 349.91L240.274 344.901C240.476 344.795 240.701 344.74 240.928 344.74C241.156 344.74 241.381 344.795 241.583 344.901L250.657 350.135C251.051 350.36 251.079 350.697 250.741 350.894L242.131 355.987C241.921 356.083 241.69 356.125 241.459 356.11C241.229 356.096 241.005 356.024 240.809 355.903H240.739ZM266.399 356.409L257.325 351.162C256.945 350.951 256.903 350.599 257.255 350.402L265.935 345.394C266.138 345.293 266.362 345.241 266.589 345.241C266.816 345.241 267.04 345.293 267.243 345.394L276.317 350.641C276.711 350.866 276.739 351.204 276.402 351.401L267.722 356.409C267.527 356.506 267.313 356.556 267.095 356.556C266.878 356.556 266.664 356.506 266.469 356.409H266.399ZM252.739 337.698C252.942 337.59 253.169 337.533 253.4 337.533C253.631 337.533 253.858 337.59 254.061 337.698L263.135 342.932C263.515 343.157 263.557 343.508 263.206 343.705L254.525 348.714C254.322 348.814 254.098 348.866 253.871 348.866C253.644 348.866 253.421 348.814 253.217 348.714L244.143 343.466C243.749 343.241 243.721 342.904 244.059 342.707L252.739 337.698ZM249.925 336.08L228.823 348.264C228.621 348.37 228.396 348.425 228.168 348.425C227.941 348.425 227.716 348.37 227.514 348.264L218.44 343.03C218.046 342.805 218.018 342.467 218.356 342.27L239.458 330.101C239.66 329.995 239.885 329.94 240.112 329.94C240.34 329.94 240.565 329.995 240.767 330.101L249.841 335.335C250.263 335.588 250.291 335.926 250.01 336.123L249.925 336.08ZM280.58 353.173L289.654 358.407C290.034 358.632 290.076 358.97 289.724 359.167L281.044 364.175C280.842 364.281 280.618 364.336 280.39 364.336C280.162 364.336 279.938 364.281 279.736 364.175L270.662 358.941C270.268 358.716 270.24 358.379 270.577 358.182L279.258 353.159C279.462 353.053 279.69 352.999 279.921 353.001C280.151 353.004 280.378 353.063 280.58 353.173ZM380.38 410.713L389.455 415.96C389.848 416.185 389.877 416.523 389.539 416.72L380.859 421.728C380.655 421.837 380.428 421.893 380.198 421.893C379.967 421.893 379.74 421.837 379.536 421.728L370.462 416.495C370.082 416.27 370.04 415.932 370.392 415.721L379.072 410.713C379.276 410.612 379.499 410.56 379.726 410.56C379.953 410.56 380.177 410.612 380.38 410.713V410.713ZM255.384 363.612C255.18 363.713 254.956 363.765 254.729 363.765C254.503 363.765 254.279 363.713 254.075 363.612L245.001 358.365C244.607 358.154 244.579 357.802 244.917 357.605L253.597 352.597C253.8 352.488 254.028 352.432 254.258 352.432C254.489 352.432 254.716 352.488 254.919 352.597L263.993 357.844C264.373 358.055 264.415 358.407 264.064 358.604L255.384 363.612ZM367.128 403.003L376.202 408.251C376.582 408.462 376.61 408.814 376.273 409.01L367.592 414.019C367.387 414.119 367.16 414.172 366.931 414.172C366.702 414.172 366.476 414.119 366.27 414.019L357.21 408.771C356.816 408.56 356.788 408.209 357.126 408.012L365.806 403.003C366.014 402.904 366.243 402.856 366.474 402.866C366.705 402.876 366.929 402.942 367.128 403.06V403.003ZM471.051 488.06C470.847 488.169 470.62 488.225 470.389 488.225C470.159 488.225 469.932 488.169 469.728 488.06L460.654 482.827C460.274 482.602 460.246 482.264 460.654 482.067L469.334 477.059C469.538 476.95 469.765 476.894 469.996 476.894C470.226 476.894 470.453 476.95 470.657 477.059L479.717 482.292C480.111 482.517 480.139 482.855 479.801 483.052L471.051 488.06ZM486.526 471.91L495.6 477.143C495.98 477.368 496.022 477.706 495.67 477.917L487.004 482.925C486.798 483.026 486.572 483.078 486.343 483.078C486.114 483.078 485.888 483.026 485.682 482.925L476.608 477.678C476.214 477.453 476.186 477.115 476.523 476.918L485.203 471.91C485.404 471.82 485.623 471.778 485.843 471.787C486.063 471.797 486.278 471.858 486.47 471.966L486.526 471.91ZM456.532 480.351L447.458 475.117C447.064 474.892 447.036 474.555 447.374 474.358L456.054 469.335C456.257 469.227 456.484 469.17 456.715 469.17C456.946 469.17 457.173 469.227 457.376 469.335L466.45 474.569C466.83 474.794 466.872 475.131 466.521 475.328L457.841 480.337C457.639 480.466 457.408 480.541 457.169 480.556C456.93 480.571 456.692 480.524 456.476 480.421L456.532 480.351ZM443.266 472.698L434.192 467.45C433.812 467.239 433.77 466.887 434.192 466.691L442.745 461.753C442.949 461.652 443.173 461.6 443.399 461.6C443.626 461.6 443.85 461.652 444.054 461.753L453.128 467C453.522 467.225 453.55 467.563 453.212 467.76L444.532 472.768C444.327 472.874 444.1 472.929 443.869 472.926C443.638 472.924 443.412 472.865 443.21 472.754L443.266 472.698ZM430.013 465.045L420.939 459.797C420.546 459.572 420.517 459.234 420.855 459.037L429.535 454.029C429.739 453.921 429.966 453.864 430.196 453.864C430.427 453.864 430.654 453.921 430.858 454.029L439.932 459.375C440.311 459.6 440.354 459.952 439.932 460.149L431.251 465.157C431.047 465.249 430.824 465.293 430.599 465.285C430.375 465.278 430.156 465.22 429.957 465.115L430.013 465.045ZM473.203 464.313L482.277 469.546C482.671 469.771 482.699 470.109 482.362 470.306L473.681 475.314C473.478 475.423 473.251 475.479 473.02 475.479C472.79 475.479 472.563 475.423 472.359 475.314L463.285 470.081C462.905 469.856 462.863 469.518 463.285 469.321L471.895 464.313C472.097 464.207 472.321 464.152 472.549 464.152C472.777 464.152 473.001 464.207 473.203 464.313V464.313ZM459.951 456.66L469.025 461.893C469.405 462.118 469.447 462.456 469.025 462.653L460.345 467.661C460.143 467.767 459.918 467.823 459.691 467.823C459.463 467.823 459.238 467.767 459.036 467.661L449.962 462.428C449.568 462.203 449.54 461.865 449.878 461.668L458.558 456.646C458.771 456.527 459.012 456.466 459.256 456.468C459.501 456.471 459.74 456.537 459.951 456.66ZM406.899 426.033L416.016 431.267C416.409 431.492 416.438 431.829 416.1 432.026L407.42 437.035C407.216 437.143 406.989 437.2 406.759 437.2C406.528 437.2 406.301 437.143 406.097 437.035L397.023 431.801C396.643 431.576 396.601 431.238 396.953 431.041L405.633 426.033C405.829 425.934 406.046 425.883 406.266 425.883C406.486 425.883 406.703 425.934 406.899 426.033ZM420.166 433.686L429.24 438.99C429.62 439.215 429.662 439.553 429.324 439.75L420.644 444.772C420.44 444.88 420.213 444.937 419.983 444.937C419.752 444.937 419.525 444.88 419.322 444.772L410.247 439.539C409.868 439.314 409.825 438.976 410.163 438.779L418.829 433.644C419.038 433.54 419.269 433.489 419.503 433.496C419.736 433.504 419.964 433.569 420.166 433.686V433.686ZM393.647 418.38L402.721 423.613C403.101 423.838 403.143 424.176 402.721 424.373L394.041 429.381C393.839 429.487 393.615 429.543 393.387 429.543C393.159 429.543 392.934 429.487 392.732 429.381L383.658 424.148C383.264 423.923 383.236 423.585 383.574 423.388L392.254 418.366C392.468 418.247 392.708 418.186 392.952 418.189C393.197 418.191 393.436 418.257 393.647 418.38ZM446.684 448.993L455.758 454.24C456.152 454.465 456.181 454.803 455.843 455L447.163 460.008C446.959 460.116 446.732 460.173 446.502 460.173C446.271 460.173 446.044 460.116 445.84 460.008L436.766 454.775C436.386 454.55 436.344 454.212 436.696 454.001L445.376 448.993C445.579 448.892 445.803 448.84 446.03 448.84C446.257 448.84 446.481 448.892 446.684 448.993ZM433.432 441.339L442.506 446.587C442.886 446.798 442.928 447.15 442.506 447.347L433.826 452.355C433.622 452.463 433.395 452.52 433.165 452.52C432.934 452.52 432.707 452.463 432.504 452.355L423.444 447.107C423.05 446.896 423.022 446.545 423.359 446.348L432.039 441.339C432.251 441.219 432.491 441.155 432.736 441.155C432.98 441.155 433.22 441.219 433.432 441.339V441.339ZM450.314 491.212L441.24 485.964C440.846 485.753 440.818 485.401 441.156 485.204L449.836 480.196C450.039 480.088 450.266 480.031 450.497 480.031C450.728 480.031 450.955 480.088 451.158 480.196L460.232 485.444C460.612 485.655 460.654 486.006 460.232 486.203L451.552 491.212C451.365 491.299 451.161 491.345 450.954 491.345C450.747 491.345 450.543 491.299 450.356 491.212H450.314ZM520.234 487.906L528.914 482.897C529.117 482.789 529.344 482.732 529.575 482.732C529.805 482.732 530.033 482.789 530.236 482.897L539.352 488.229C539.732 488.454 539.774 488.792 539.352 489.003L530.672 494.011C530.469 494.112 530.245 494.164 530.018 494.164C529.791 494.164 529.567 494.112 529.364 494.011L520.29 488.764C519.966 488.44 519.938 488.102 520.276 487.906H520.234ZM502.958 492.253L511.68 487.23C511.883 487.13 512.107 487.077 512.334 487.077C512.561 487.077 512.785 487.13 512.988 487.23L526.944 495.291C527.338 495.516 527.366 495.854 527.029 496.051L518.348 501.073C518.145 501.182 517.918 501.239 517.687 501.239C517.457 501.239 517.229 501.182 517.026 501.073L503.07 493.026C502.69 492.787 502.648 492.45 503 492.253H502.958ZM533.19 478.015L541.871 472.993C542.074 472.885 542.301 472.828 542.532 472.828C542.762 472.828 542.989 472.885 543.193 472.993L554.363 479.436C554.743 479.661 554.785 479.999 554.363 480.196L545.683 485.204C545.481 485.31 545.257 485.366 545.029 485.366C544.801 485.366 544.576 485.31 544.375 485.204L533.204 478.761C532.923 478.55 532.895 478.212 533.233 478.015H533.19ZM524.637 473.063C524.433 473.172 524.206 473.229 523.976 473.229C523.745 473.229 523.518 473.172 523.314 473.063L514.24 467.83C513.861 467.605 513.818 467.267 514.156 467.07L522.935 462.006C523.138 461.897 523.365 461.841 523.596 461.841C523.826 461.841 524.053 461.897 524.257 462.006L533.331 467.239C533.725 467.464 533.753 467.802 533.416 467.999L524.637 473.063ZM487.06 497.388L495.783 492.45C495.986 492.341 496.213 492.285 496.444 492.285C496.675 492.285 496.902 492.341 497.105 492.45L514.494 502.494C514.873 502.719 514.916 503.057 514.578 503.254L505.898 508.276C505.694 508.385 505.467 508.441 505.237 508.441C505.006 508.441 504.779 508.385 504.575 508.276L487.131 498.204C486.793 497.922 486.765 497.585 487.103 497.388H487.06ZM480.941 508.178L489.621 503.17C489.824 503.061 490.051 503.005 490.282 503.005C490.513 503.005 490.74 503.061 490.943 503.17L502.114 509.613C502.493 509.838 502.522 510.176 502.184 510.373L493.504 515.381C493.3 515.489 493.073 515.546 492.843 515.546C492.612 515.546 492.385 515.489 492.181 515.381L481.025 508.938C480.73 508.713 480.645 508.375 480.983 508.178H480.941ZM426.074 416.143C425.873 416.249 425.648 416.304 425.42 416.304C425.192 416.304 424.968 416.249 424.766 416.143L415.692 410.896C415.298 410.685 415.27 410.333 415.608 410.136L424.288 405.128C424.494 405.027 424.72 404.975 424.949 404.975C425.178 404.975 425.404 405.027 425.61 405.128L434.684 410.375C435.064 410.6 435.106 410.938 434.684 411.135L426.074 416.143ZM452.593 431.449C452.39 431.558 452.162 431.614 451.932 431.614C451.701 431.614 451.474 431.558 451.271 431.449L442.197 426.216C441.817 425.991 441.775 425.653 442.112 425.456L450.792 420.448C450.996 420.34 451.223 420.283 451.454 420.283C451.684 420.283 451.911 420.34 452.115 420.448L461.189 425.681C461.569 425.907 461.611 426.244 461.273 426.441L452.593 431.449ZM511.399 465.41C511.195 465.519 510.968 465.575 510.737 465.575C510.507 465.575 510.28 465.519 510.076 465.41L501.002 460.163C500.622 459.952 500.594 459.6 501.002 459.403L509.682 454.395C509.888 454.294 510.114 454.242 510.343 454.242C510.573 454.242 510.799 454.294 511.005 454.395L520.079 459.642C520.459 459.867 520.487 460.205 520.079 460.402L511.399 465.41ZM439.327 423.796C439.123 423.905 438.896 423.961 438.665 423.961C438.435 423.961 438.208 423.905 438.004 423.796L428.93 418.563C428.55 418.338 428.508 418 428.86 417.803L437.54 412.781C437.742 412.675 437.966 412.619 438.194 412.619C438.422 412.619 438.647 412.675 438.848 412.781L447.922 418.014C448.316 418.239 448.344 418.577 448.007 418.774L439.327 423.796ZM465.845 439.117C465.642 439.225 465.415 439.282 465.184 439.282C464.954 439.282 464.727 439.225 464.523 439.117L455.463 433.883C455.069 433.658 455.041 433.32 455.379 433.124L464.059 428.115C464.262 428.007 464.489 427.95 464.72 427.95C464.951 427.95 465.178 428.007 465.381 428.115L474.469 433.363C474.849 433.588 474.877 433.925 474.469 434.122L465.845 439.117ZM474.455 508.713C474.659 508.604 474.886 508.547 475.116 508.547C475.347 508.547 475.574 508.604 475.778 508.713L489.733 516.774C490.127 516.999 490.155 517.336 489.818 517.533L481.138 522.542C480.934 522.65 480.707 522.707 480.476 522.707C480.246 522.707 480.019 522.65 479.815 522.542L465.859 514.481C465.466 514.255 465.437 513.918 465.775 513.721L474.455 508.713ZM484.95 450.104C484.747 450.212 484.52 450.269 484.289 450.269C484.058 450.269 483.831 450.212 483.628 450.104L474.554 444.871C474.174 444.645 474.132 444.308 474.554 444.111L483.107 438.99C483.309 438.884 483.534 438.829 483.761 438.829C483.989 438.829 484.214 438.884 484.416 438.99L493.49 444.223C493.884 444.449 493.912 444.786 493.574 444.983L484.95 450.104ZM498.203 457.757C497.999 457.858 497.775 457.91 497.548 457.91C497.321 457.91 497.098 457.858 496.894 457.757L487.82 452.51C487.426 452.285 487.398 451.947 487.736 451.75L496.416 446.742C496.619 446.633 496.846 446.577 497.077 446.577C497.308 446.577 497.535 446.633 497.738 446.742L506.812 451.975C507.192 452.2 507.234 452.552 506.883 452.749L498.203 457.757ZM228.851 366.876C229.054 366.768 229.281 366.711 229.512 366.711C229.743 366.711 229.97 366.768 230.173 366.876L252.514 379.777C252.894 379.988 252.936 380.339 252.584 380.536L243.904 385.545C243.7 385.653 243.473 385.71 243.243 385.71C243.012 385.71 242.785 385.653 242.581 385.545L220.255 372.644C219.875 372.419 219.833 372.081 220.171 371.884L228.851 366.876ZM258.169 383.758C258.373 383.649 258.6 383.593 258.83 383.593C259.061 383.593 259.288 383.649 259.492 383.758L268.566 388.991C268.945 389.216 268.988 389.554 268.636 389.751L259.956 394.773C259.754 394.879 259.53 394.935 259.302 394.935C259.074 394.935 258.849 394.879 258.647 394.773L249.573 389.54C249.179 389.315 249.151 388.977 249.489 388.78L258.169 383.758ZM437.118 483.558L428.044 478.311C427.664 478.086 427.622 477.748 427.974 477.551L436.654 472.543C436.855 472.437 437.08 472.382 437.308 472.382C437.536 472.382 437.76 472.437 437.962 472.543L446.966 477.819C447.36 478.044 447.388 478.381 447.05 478.578L438.37 483.601C438.171 483.684 437.955 483.723 437.739 483.716C437.523 483.709 437.311 483.655 437.118 483.558V483.558ZM284.66 399.149C284.866 399.048 285.092 398.996 285.321 398.996C285.55 398.996 285.776 399.048 285.982 399.149L295.028 404.396C295.408 404.621 295.45 404.959 295.098 405.156L286.418 410.164C286.217 410.27 285.992 410.325 285.764 410.325C285.536 410.325 285.312 410.27 285.11 410.164L276.036 404.931C275.642 404.706 275.614 404.354 275.951 404.157L284.66 399.149ZM215.542 359.223C215.746 359.114 215.973 359.058 216.203 359.058C216.434 359.058 216.661 359.114 216.865 359.223L225.925 364.456C226.318 364.681 226.347 365.019 226.009 365.216L217.329 370.224C217.125 370.333 216.898 370.389 216.668 370.389C216.437 370.389 216.21 370.333 216.006 370.224L206.932 364.991C206.553 364.766 206.524 364.428 206.862 364.231L215.542 359.223ZM193.596 356.578L214.698 344.409C214.9 344.303 215.124 344.247 215.352 344.247C215.58 344.247 215.805 344.303 216.006 344.409L225.08 349.642C225.474 349.867 225.503 350.205 225.165 350.402L204.062 362.571C203.861 362.677 203.636 362.732 203.408 362.732C203.18 362.732 202.956 362.677 202.754 362.571L193.736 357.394C193.286 357.113 193.258 356.775 193.596 356.578ZM334.194 427.735C334.396 427.629 334.621 427.574 334.848 427.574C335.076 427.574 335.301 427.629 335.503 427.735L346.673 434.179C347.053 434.404 347.095 434.741 346.757 434.938L338.077 439.961C337.874 440.069 337.646 440.126 337.416 440.126C337.185 440.126 336.958 440.069 336.755 439.961L325.584 433.517C325.205 433.292 325.162 432.955 325.514 432.758L334.194 427.735ZM300.655 408.377C300.859 408.269 301.086 408.212 301.317 408.212C301.547 408.212 301.774 408.269 301.978 408.377L315.962 416.481C316.356 416.706 316.384 417.043 316.046 417.24L307.366 422.249C307.162 422.357 306.935 422.414 306.705 422.414C306.474 422.414 306.247 422.357 306.044 422.249L292.088 414.188C291.694 413.977 291.666 413.625 292.003 413.428L300.655 408.377ZM364.863 445.447C365.067 445.339 365.294 445.282 365.524 445.282C365.755 445.282 365.982 445.339 366.186 445.447L440.86 488.567C441.254 488.792 441.282 489.129 440.945 489.326L432.264 494.335C432.061 494.443 431.834 494.5 431.603 494.5C431.373 494.5 431.146 494.443 430.942 494.335L356.267 451.215C355.888 451.004 355.845 450.653 356.183 450.456L364.863 445.447ZM443.758 491.043C443.962 490.934 444.189 490.878 444.419 490.878C444.65 490.878 444.877 490.934 445.081 491.043L456.251 497.486C456.631 497.711 456.673 498.049 456.321 498.246L447.641 503.268C447.439 503.374 447.215 503.429 446.987 503.429C446.759 503.429 446.534 503.374 446.333 503.268L435.162 496.825C434.783 496.6 434.74 496.262 435.078 496.065L443.758 491.043ZM349.501 436.641C349.704 436.532 349.931 436.476 350.162 436.476C350.392 436.476 350.619 436.532 350.823 436.641L361.979 443.084C362.373 443.309 362.401 443.661 362.064 443.858L353.383 448.866C353.178 448.967 352.951 449.019 352.722 449.019C352.493 449.019 352.267 448.967 352.061 448.866L340.905 442.409C340.511 442.184 340.483 441.846 340.82 441.649L349.501 436.641ZM459.079 499.948C459.28 499.842 459.505 499.787 459.733 499.787C459.961 499.787 460.185 499.842 460.387 499.948L471.557 506.391C471.951 506.616 471.979 506.954 471.642 507.151L463.004 512.145C462.8 512.254 462.573 512.31 462.342 512.31C462.112 512.31 461.885 512.254 461.681 512.145L450.511 505.702C450.131 505.477 450.089 505.139 450.441 504.942L459.079 499.948ZM318.789 418.957C318.993 418.848 319.22 418.792 319.451 418.792C319.681 418.792 319.908 418.848 320.112 418.957L331.282 425.4C331.662 425.625 331.69 425.963 331.352 426.16L322.672 431.168C322.469 431.276 322.242 431.333 322.011 431.333C321.78 431.333 321.553 431.276 321.35 431.168L310.194 424.725C309.8 424.5 309.772 424.162 310.109 423.965L318.789 418.957ZM271.337 391.552C271.539 391.446 271.763 391.39 271.991 391.39C272.219 391.39 272.444 391.446 272.645 391.552L281.762 396.785C282.156 396.996 282.184 397.348 281.846 397.545L273.166 402.553C272.96 402.654 272.734 402.706 272.505 402.706C272.276 402.706 272.049 402.654 271.844 402.553L262.769 397.306C262.39 397.081 262.347 396.743 262.699 396.546L271.337 391.552ZM241.625 370.829L232.551 365.582C232.171 365.357 232.129 365.019 232.48 364.822L241.161 359.814C241.364 359.705 241.591 359.649 241.822 359.649C242.052 359.649 242.279 359.705 242.483 359.814L251.557 365.047C251.937 365.272 251.965 365.624 251.627 365.821L242.947 370.829C242.74 370.908 242.517 370.94 242.296 370.923C242.075 370.906 241.86 370.84 241.667 370.731L241.625 370.829ZM295.746 373.432L286.672 368.184C286.292 367.973 286.249 367.622 286.587 367.425L295.267 362.416C295.471 362.308 295.698 362.251 295.928 362.251C296.159 362.251 296.386 362.308 296.59 362.416L305.664 367.664C306.044 367.889 306.086 368.226 305.734 368.423L297.068 373.432C296.862 373.518 296.639 373.554 296.416 373.537C296.193 373.52 295.978 373.45 295.788 373.333L295.746 373.432ZM330.916 422.403L304.398 407.083C304.018 406.872 303.976 406.52 304.327 406.323L313.007 401.315C313.209 401.209 313.434 401.154 313.662 401.154C313.889 401.154 314.114 401.209 314.316 401.315L340.849 416.635C341.228 416.861 341.257 417.198 340.919 417.395L332.239 422.403C332.039 422.483 331.823 422.515 331.608 422.498C331.394 422.481 331.186 422.415 331.001 422.305L330.916 422.403ZM256.256 378.496C256.052 378.605 255.825 378.661 255.595 378.661C255.364 378.661 255.137 378.605 254.933 378.496L245.859 373.249C245.48 373.038 245.437 372.686 245.775 372.489L254.455 367.481C254.661 367.38 254.887 367.328 255.116 367.328C255.345 367.328 255.572 367.38 255.778 367.481L264.852 372.728C265.231 372.939 265.274 373.291 264.936 373.488L256.256 378.496ZM267.328 371.293L258.254 366.06C257.874 365.835 257.846 365.483 258.183 365.3L266.891 360.208C267.097 360.107 267.324 360.055 267.553 360.055C267.782 360.055 268.008 360.107 268.214 360.208L277.274 365.455C277.668 365.68 277.696 366.018 277.358 366.215L268.678 371.223C268.471 371.336 268.239 371.396 268.003 371.396C267.767 371.396 267.535 371.336 267.328 371.223V371.293ZM344.267 429.958L335.193 424.725C334.813 424.5 334.771 424.162 335.123 423.965L343.803 418.943C344.005 418.837 344.229 418.781 344.457 418.781C344.685 418.781 344.909 418.837 345.111 418.943L354.115 424.232C354.509 424.457 354.537 424.795 354.199 424.992L345.519 430C345.321 430.091 345.105 430.134 344.888 430.126C344.671 430.119 344.458 430.061 344.267 429.958V429.958ZM285.56 395.378C285.358 395.484 285.134 395.54 284.906 395.54C284.678 395.54 284.454 395.484 284.252 395.378L275.178 390.131C274.784 389.92 274.756 389.568 275.093 389.371L283.773 384.292C283.979 384.192 284.205 384.14 284.435 384.14C284.664 384.14 284.89 384.192 285.096 384.292L294.17 389.54C294.55 389.765 294.592 390.103 294.24 390.3L285.56 395.378ZM410.571 468.266L401.497 463.033C401.117 462.808 401.075 462.47 401.427 462.273L410.107 457.279C410.309 457.173 410.533 457.117 410.761 457.117C410.989 457.117 411.213 457.173 411.415 457.279L420.489 462.512C420.883 462.737 420.911 463.075 420.574 463.272L411.894 468.28C411.687 468.382 411.458 468.432 411.227 468.424C410.996 468.417 410.771 468.353 410.571 468.238V468.266ZM397.305 460.613L388.231 455.38C387.851 455.155 387.823 454.803 388.16 454.606L396.84 449.598C397.046 449.497 397.272 449.445 397.502 449.445C397.731 449.445 397.957 449.497 398.163 449.598L407.237 454.845C407.617 455.07 407.645 455.408 407.307 455.605L398.627 460.613C398.421 460.717 398.193 460.769 397.962 460.764C397.732 460.759 397.506 460.698 397.305 460.585V460.613ZM423.837 475.919L414.763 470.686C414.37 470.461 414.341 470.123 414.679 469.926L423.359 464.918C423.563 464.81 423.79 464.753 424.02 464.753C424.251 464.753 424.478 464.81 424.682 464.918L433.756 470.151C434.135 470.376 434.178 470.714 433.756 470.911L425.075 475.933C424.88 476.021 424.666 476.063 424.452 476.056C424.237 476.049 424.027 475.992 423.837 475.891V475.919ZM370.786 445.293L361.712 440.059C361.332 439.834 361.29 439.496 361.642 439.3L370.322 434.291C370.523 434.185 370.748 434.13 370.976 434.13C371.204 434.13 371.428 434.185 371.63 434.291L380.704 439.525C381.098 439.75 381.126 440.087 380.788 440.284L372.108 445.307C371.901 445.409 371.672 445.458 371.442 445.451C371.211 445.443 370.986 445.379 370.786 445.264V445.293ZM384.052 452.96L374.978 447.712C374.598 447.501 374.556 447.15 374.894 446.953L383.574 441.944C383.778 441.836 384.005 441.779 384.235 441.779C384.466 441.779 384.693 441.836 384.896 441.944L393.97 447.192C394.35 447.403 394.393 447.755 394.055 447.952L385.361 452.96C385.155 453.056 384.93 453.103 384.703 453.099C384.476 453.094 384.254 453.037 384.052 452.932V452.96ZM357.534 437.583L348.488 432.378C348.094 432.153 348.066 431.815 348.403 431.618L357.083 426.61C357.287 426.502 357.514 426.445 357.745 426.445C357.975 426.445 358.202 426.502 358.406 426.61L367.452 431.956C367.832 432.181 367.874 432.519 367.522 432.716L358.842 437.738C358.627 437.815 358.397 437.841 358.17 437.815C357.943 437.788 357.725 437.708 357.534 437.583V437.583ZM285.18 331.114C284.977 331.223 284.75 331.279 284.519 331.279C284.288 331.279 284.061 331.223 283.858 331.114L274.784 325.881C274.404 325.656 274.362 325.318 274.713 325.121L277.021 323.785C277.224 323.676 277.451 323.62 277.682 323.62C277.912 323.62 278.14 323.676 278.343 323.785L287.417 329.032C287.797 329.243 287.825 329.595 287.487 329.792L285.18 331.114ZM351.076 372.869C350.873 372.977 350.646 373.034 350.415 373.034C350.184 373.034 349.957 372.977 349.754 372.869L340.68 367.622C340.3 367.411 340.258 367.059 340.68 366.862L349.36 361.854C349.562 361.748 349.786 361.692 350.014 361.692C350.242 361.692 350.466 361.748 350.668 361.854L359.742 367.101C360.136 367.312 360.164 367.664 359.827 367.861L351.076 372.869ZM324.572 357.521C324.368 357.629 324.141 357.686 323.91 357.686C323.68 357.686 323.453 357.629 323.249 357.521L314.175 352.287C313.795 352.062 313.753 351.724 314.105 351.527L322.785 346.519C322.987 346.413 323.211 346.358 323.439 346.358C323.667 346.358 323.891 346.413 324.093 346.519L333.153 351.767C333.547 351.992 333.575 352.329 333.238 352.526L324.572 357.521ZM367.283 382.182C367.079 382.291 366.852 382.347 366.622 382.347C366.391 382.347 366.164 382.291 365.96 382.182L356.886 376.949C356.507 376.724 356.464 376.386 356.816 376.189L365.496 371.167C365.698 371.061 365.922 371.005 366.15 371.005C366.378 371.005 366.603 371.061 366.805 371.167L375.879 376.4C376.273 376.625 376.301 376.963 375.963 377.16L367.283 382.182ZM337.824 365.188C337.62 365.288 337.397 365.34 337.17 365.34C336.943 365.34 336.719 365.288 336.516 365.188L327.441 359.94C327.048 359.715 327.019 359.378 327.357 359.181L336.037 354.172C336.241 354.064 336.468 354.007 336.698 354.007C336.929 354.007 337.156 354.064 337.36 354.172L346.434 359.406C346.814 359.631 346.856 359.968 346.504 360.165L337.824 365.188ZM393.802 397.545C393.596 397.646 393.37 397.698 393.14 397.698C392.911 397.698 392.685 397.646 392.479 397.545L383.405 392.297C383.025 392.072 382.997 391.735 383.335 391.538L392.015 386.529C392.219 386.421 392.446 386.364 392.676 386.364C392.907 386.364 393.134 386.421 393.337 386.529L402.411 391.763C402.791 391.988 402.819 392.34 402.482 392.537L393.802 397.545ZM380.535 389.892C380.333 389.998 380.109 390.053 379.881 390.053C379.653 390.053 379.429 389.998 379.227 389.892L370.153 384.658C369.759 384.433 369.731 384.096 370.068 383.899L378.749 378.89C378.952 378.782 379.179 378.725 379.41 378.725C379.64 378.725 379.867 378.782 380.071 378.89L389.131 384.124C389.511 384.349 389.553 384.686 389.201 384.883L380.535 389.892ZM311.699 346.463C311.495 346.571 311.268 346.628 311.038 346.628C310.807 346.628 310.58 346.571 310.377 346.463L301.303 341.215C300.923 341.004 300.895 340.653 301.232 340.456L303.469 339.105C303.673 338.997 303.9 338.94 304.13 338.94C304.361 338.94 304.588 338.997 304.791 339.105L313.866 344.339C314.245 344.564 314.288 344.901 313.936 345.098L311.699 346.463ZM271.914 323.489C271.712 323.595 271.488 323.651 271.26 323.651C271.032 323.651 270.807 323.595 270.606 323.489L261.531 318.256C261.138 318.031 261.109 317.693 261.447 317.496L263.754 316.16C263.958 316.051 264.185 315.995 264.415 315.995C264.646 315.995 264.873 316.051 265.077 316.16L274.151 321.393C274.531 321.618 274.573 321.97 274.235 322.167L271.914 323.489ZM253.625 334.026C253.419 334.127 253.193 334.179 252.964 334.179C252.735 334.179 252.509 334.127 252.303 334.026L243.243 328.779C242.849 328.554 242.821 328.216 243.158 328.019L251.838 323.011C252.042 322.903 252.269 322.846 252.5 322.846C252.73 322.846 252.957 322.903 253.161 323.011L262.235 328.244C262.615 328.469 262.657 328.807 262.235 329.004L253.625 334.026ZM228.302 363.106L219.228 357.872C218.834 357.647 218.806 357.309 219.144 357.113L227.824 352.104C228.027 351.996 228.254 351.939 228.485 351.939C228.716 351.939 228.943 351.996 229.146 352.104L238.333 357.394C238.713 357.619 238.755 357.957 238.403 358.154L229.723 363.176C229.509 363.259 229.278 363.288 229.05 363.261C228.822 363.234 228.604 363.152 228.415 363.021L228.302 363.106ZM298.306 338.81C298.103 338.91 297.879 338.962 297.652 338.962C297.425 338.962 297.201 338.91 296.998 338.81L287.994 333.478C287.6 333.253 287.572 332.915 287.91 332.718L290.231 331.382C290.433 331.276 290.657 331.22 290.885 331.22C291.113 331.22 291.337 331.276 291.539 331.382L300.655 336.671C301.049 336.896 301.077 337.234 300.74 337.431L298.306 338.81ZM407.054 405.226C406.85 405.334 406.623 405.391 406.393 405.391C406.162 405.391 405.935 405.334 405.732 405.226L396.658 399.979C396.278 399.768 396.235 399.416 396.573 399.219L405.267 394.211C405.471 394.11 405.695 394.058 405.921 394.058C406.148 394.058 406.372 394.11 406.576 394.211L415.65 399.458C416.03 399.683 416.072 400.021 415.734 400.218L407.054 405.226Z" fill="#455A64"/>
<path d="M369.07 480.618L367.1 481.758L314.696 512.004L221.507 458.193L219.566 457.096L273.94 425.709L369.07 480.618Z" fill="#263238"/>
<path d="M222.703 458.897L273.94 429.325L365.904 482.447L314.696 512.004L222.703 458.897Z" fill="#37474F"/>
<path d="M600.015 448.613C600.808 449.077 601.7 449.347 602.617 449.401C603.927 449.564 605.256 449.329 606.43 448.725C607.361 448.104 608.13 447.269 608.673 446.29C609.216 445.311 609.518 444.217 609.553 443.098V249.687L603.321 253.288V446.685C603.321 448.191 602.575 449.063 601.478 449.063C600.962 449.027 600.462 448.873 600.015 448.613V448.613Z" fill="#E6E6E6"/>
<path d="M601.633 448.275C602.575 448.275 602.688 447.164 602.688 446.685L602.688 235.9L298.222 60.1165L298.222 270.001C298.282 271.015 298.577 272.001 299.082 272.882C299.587 273.763 300.29 274.516 301.134 275.08L600.549 447.923C600.875 448.131 601.248 448.252 601.633 448.275Z" fill="#FAFAFA"/>
<path d="M298.855 61.4811L298.855 270.001C298.913 270.88 299.171 271.734 299.61 272.497C300.049 273.26 300.657 273.913 301.387 274.405L600.803 447.248C601.006 447.392 601.244 447.479 601.492 447.501C601.759 447.501 601.759 446.699 601.759 446.685L601.759 236.406L298.855 61.4811ZM297.293 58.7659L603.321 235.45L603.321 446.685C603.321 448.191 602.575 449.063 601.492 449.063C600.993 449.03 600.51 448.875 600.085 448.613L300.655 275.798C299.686 275.169 298.88 274.32 298.303 273.32C297.726 272.32 297.394 271.197 297.335 270.044L297.335 58.7659H297.293Z" fill="#EBEBEB"/>
<path d="M297.335 40.5053C297.56 38.789 298.953 38.1559 300.613 39.0985L600.015 211.97C600.987 212.598 601.794 213.452 602.364 214.46L608.582 210.858C608.02 209.849 607.212 208.997 606.233 208.382L306.831 35.5392C305.914 34.9584 304.86 34.629 303.776 34.5841C302.691 34.5393 301.613 34.7805 300.651 35.2837C299.689 35.7868 298.876 36.5341 298.294 37.4506C297.712 38.3672 297.382 39.4206 297.335 40.5053V40.5053Z" fill="#3DC2EC"/>
<path opacity="0.2" d="M297.335 40.5053C297.56 38.789 298.953 38.1559 300.613 39.0985L600.015 211.97C600.987 212.598 601.794 213.452 602.364 214.46L608.582 210.858C608.02 209.849 607.212 208.997 606.233 208.382L306.831 35.5392C305.914 34.9584 304.86 34.629 303.776 34.5841C302.691 34.5393 301.613 34.7805 300.651 35.2837C299.689 35.7868 298.876 36.5341 298.294 37.4506C297.712 38.3672 297.382 39.4206 297.335 40.5053V40.5053Z" fill="white"/>
<path d="M602.364 214.46C602.954 215.449 603.283 216.572 603.321 217.724V235.464L609.567 231.862V214.136C609.574 214 609.574 213.864 609.567 213.728C609.542 213.454 609.5 213.181 609.441 212.912C609.266 212.191 608.986 211.499 608.611 210.858L602.364 214.46Z" fill="#3DC2EC"/>
<path opacity="0.2" d="M602.364 214.46C602.954 215.449 603.283 216.572 603.321 217.724V235.464L609.567 231.862V214.136C609.574 214 609.574 213.864 609.567 213.728C609.542 213.454 609.5 213.181 609.441 212.912C609.266 212.191 608.986 211.499 608.611 210.858L602.364 214.46Z" fill="black"/>
<path d="M297.307 41.04V58.766L506.601 179.753C508.43 180.809 509.921 179.95 509.921 177.84V171.13C509.921 169.005 511.328 168.147 513.242 169.216L587.55 211.97C589.14 212.8 589.239 214.882 589.689 217.724L590.885 224.434C591.363 227.248 592.291 229.119 594.191 230.174L603.321 235.45V217.724C603.261 216.572 602.931 215.451 602.356 214.451C601.782 213.451 600.98 212.601 600.015 211.97L300.655 39.1267C298.784 38.0434 297.307 38.9297 297.307 41.04Z" fill="#3DC2EC"/>
<path d="M306.803 50.55C305.396 49.7341 304.257 50.3953 304.257 51.9569C304.304 52.8416 304.559 53.7029 305.001 54.4705C305.444 55.2381 306.061 55.8904 306.803 56.3743C308.21 57.1762 309.35 56.5291 309.35 54.9675C309.303 54.0827 309.048 53.2214 308.605 52.4538C308.163 51.6862 307.545 51.0339 306.803 50.55V50.55Z" fill="white"/>
<path d="M315.976 55.8256C314.569 55.0237 313.429 55.6708 313.429 57.2324C313.478 58.1148 313.734 58.9732 314.177 59.7382C314.619 60.5032 315.236 61.1533 315.976 61.6358C317.383 62.4518 318.508 61.7905 318.508 60.229C318.461 59.3478 318.207 58.4902 317.767 57.7253C317.327 56.9604 316.714 56.3096 315.976 55.8256V55.8256Z" fill="white"/>
<path d="M325.134 61.1153C323.727 60.2994 322.588 60.9606 322.588 62.5222C322.635 63.407 322.89 64.2682 323.332 65.0358C323.775 65.8035 324.392 66.4557 325.134 66.9396C326.541 67.7415 327.681 67.0944 327.681 65.5328C327.634 64.648 327.379 63.7867 326.936 63.0191C326.494 62.2515 325.877 61.5992 325.134 61.1153Z" fill="white"/>
<path d="M297.293 58.7659V76.6185L603.321 253.288V235.45L596.498 231.496C594.683 230.441 594.064 228.838 593.192 225.757L590.885 217.724C590.153 214.91 589.393 213.025 587.55 211.97L510.484 167.584C508.641 166.529 507.206 166.417 505.813 168.724L503 173.873C501.959 175.673 501.438 176.686 499.609 175.673L297.293 58.7659Z" fill="#E0E0E0"/>
<path d="M603.321 235.45V253.288L609.567 249.687V231.862L603.321 235.45Z" fill="#E0E0E0"/>
<path opacity="0.15" d="M603.321 235.45V253.288L609.567 249.687V231.862L603.321 235.45Z" fill="black"/>
<path opacity="0.2" d="M595.161 239.29L598.903 241.457L597.497 238.643C597.439 238.54 597.408 238.424 597.408 238.306C597.408 238.187 597.439 238.071 597.497 237.968C597.609 237.841 597.792 237.968 597.919 238.165L599.959 242.076C599.966 242.122 599.966 242.17 599.959 242.217C599.959 242.217 599.959 242.217 599.959 242.217C599.965 242.287 599.965 242.357 599.959 242.428C599.965 242.484 599.965 242.54 599.959 242.596V242.681L597.919 244.242C597.89 244.263 597.856 244.274 597.82 244.274C597.785 244.274 597.75 244.263 597.722 244.242C597.616 244.178 597.536 244.079 597.497 243.961C597.384 243.694 597.398 243.412 597.497 243.314L598.903 242.217L595.161 240.05C595.064 239.976 594.986 239.88 594.932 239.77C594.878 239.66 594.851 239.539 594.852 239.417C594.852 239.333 594.992 239.22 595.161 239.29Z" fill="black"/>
<path opacity="0.2" d="M592.024 237.49L588.282 235.323L589.689 234.226C589.815 234.127 589.829 233.846 589.689 233.579C589.548 233.311 589.393 233.199 589.267 233.297L587.241 234.859V234.929C587.233 234.99 587.233 235.051 587.241 235.112C587.235 235.178 587.235 235.243 587.241 235.309C587.241 235.309 587.241 235.407 587.241 235.464L589.267 239.375C589.31 239.467 589.378 239.545 589.464 239.6C589.478 239.615 589.496 239.627 589.515 239.636C589.534 239.644 589.555 239.648 589.576 239.648C589.597 239.648 589.618 239.644 589.637 239.636C589.657 239.627 589.674 239.615 589.689 239.6C589.747 239.497 589.777 239.38 589.777 239.262C589.777 239.144 589.747 239.028 589.689 238.924L588.282 236.111L592.024 238.277C592.193 238.376 592.334 238.277 592.334 237.982C592.297 237.784 592.186 237.608 592.024 237.49Z" fill="black"/>
<path opacity="0.2" d="M579.728 226.685C579.728 226.46 579.953 226.488 580.052 226.685L580.615 227.965C581.487 227.867 582.556 228.725 583.274 230.244C584.202 232.214 584.202 234.535 583.274 235.422C583.05 235.635 582.758 235.763 582.45 235.783C582.141 235.804 581.836 235.716 581.585 235.534C580.835 235.028 580.248 234.314 579.897 233.48C579.84 233.382 579.81 233.27 579.81 233.157C579.81 233.043 579.84 232.931 579.897 232.833C580.024 232.72 580.207 232.833 580.333 233.072C581.023 234.479 582.148 235.197 582.852 234.479C583.555 233.762 583.541 232.073 582.852 230.61C582.345 229.569 581.642 228.95 581.023 228.908L581.417 229.851C581.515 230.104 581.417 230.329 581.262 230.23L579.728 229.232C579.671 229.178 579.626 229.112 579.597 229.039C579.568 228.966 579.555 228.888 579.56 228.81L579.728 226.685Z" fill="black"/>
<path opacity="0.2" d="M509.528 175.012L508.121 171.931C508.029 171.789 507.981 171.623 507.981 171.453C507.981 171.283 508.029 171.117 508.121 170.975C508.29 170.806 508.571 170.975 508.74 171.34L510.147 174.421L511.553 173.015C511.722 172.846 512.004 173.015 512.172 173.38C512.256 173.526 512.301 173.691 512.301 173.859C512.301 174.027 512.256 174.192 512.172 174.337L510.766 175.744L512.172 178.825C512.258 178.97 512.303 179.135 512.303 179.303C512.303 179.471 512.258 179.636 512.172 179.781C512.128 179.816 512.074 179.834 512.018 179.834C511.962 179.834 511.907 179.816 511.863 179.781C511.726 179.687 511.618 179.555 511.553 179.402L510.147 176.321L508.74 177.727C508.695 177.762 508.641 177.78 508.585 177.78C508.529 177.78 508.475 177.762 508.43 177.727C508.293 177.633 508.185 177.501 508.121 177.348C507.938 176.982 507.938 176.546 508.121 176.391L509.528 175.012Z" fill="black"/>
<path d="M574.748 230.245V225.419C574.705 224.591 574.467 223.786 574.054 223.067C573.641 222.348 573.064 221.737 572.371 221.283L315.399 73.0313C314.077 72.2717 313.007 72.8907 313.007 74.4382V79.2777C313.055 80.1061 313.296 80.9119 313.711 81.6303C314.127 82.3486 314.705 82.9595 315.399 83.4137L572.371 231.623C573.679 232.383 574.748 231.764 574.748 230.245Z" fill="#FAFAFA"/>
<path d="M318.649 83.7512C318.718 83.7656 318.79 83.7656 318.86 83.7512C318.993 83.6905 319.102 83.5866 319.168 83.4563C319.234 83.326 319.255 83.177 319.226 83.0337L318.986 81.0641L319.901 80.4029C319.984 80.342 320.051 80.2612 320.096 80.1678C320.14 80.0745 320.16 79.9715 320.154 79.8683C320.159 79.7087 320.125 79.5503 320.057 79.4061C319.988 79.2618 319.887 79.1358 319.76 79.0383L318.353 77.955V77.8425L317.734 75.7885C317.696 75.6185 317.607 75.4641 317.479 75.346C317.351 75.2279 317.189 75.1516 317.017 75.1273C316.903 75.1195 316.79 75.1462 316.692 75.204C316.594 75.2617 316.516 75.3478 316.468 75.4509L315.948 76.5763L314.724 76.0277C314.615 75.9846 314.496 75.9763 314.383 76.0041C314.269 76.0318 314.167 76.0941 314.091 76.1824C313.99 76.3216 313.936 76.489 313.936 76.6607C313.936 76.8325 313.99 76.9999 314.091 77.1391L315.104 79.0524C315.114 79.0892 315.114 79.1281 315.104 79.1649L314.864 80.8812C314.85 81.0392 314.869 81.1983 314.92 81.3485C314.971 81.4987 315.053 81.6366 315.16 81.7535C315.231 81.8297 315.319 81.8884 315.416 81.925C315.514 81.9617 315.619 81.9752 315.723 81.9645L316.862 81.8238L318.1 83.3995C318.157 83.4972 318.237 83.5801 318.332 83.6412C318.428 83.7023 318.536 83.74 318.649 83.7512V83.7512ZM319.324 79.7558L318.41 80.417C318.313 80.495 318.238 80.5973 318.194 80.7134C318.149 80.8296 318.136 80.9554 318.156 81.0782L318.311 82.3865L317.481 81.3314C317.417 81.2279 317.325 81.145 317.215 81.0926C317.105 81.0402 316.983 81.0206 316.862 81.036L315.709 81.1767C315.698 81.1351 315.698 81.0917 315.709 81.0501L315.948 79.3197C315.972 79.1067 315.933 78.8913 315.835 78.7007L314.935 77.0406L315.849 77.3782C315.984 77.4356 316.135 77.4384 316.272 77.3859C316.409 77.3333 316.519 77.2297 316.581 77.0969L316.989 76.2106L317.552 78.0394C317.614 78.2483 317.736 78.4342 317.903 78.574L319.31 79.6432C319.322 79.6796 319.326 79.7177 319.324 79.7558V79.7558Z" fill="#E0E0E0"/>
<g opacity="0.2">
<path opacity="0.2" d="M310.194 72.4402C310.339 72.4407 310.481 72.4033 310.607 72.3318C310.733 72.2602 310.838 72.1569 310.911 72.0323C311.02 71.8413 311.05 71.6153 310.995 71.4025C310.94 71.1897 310.804 71.0068 310.616 70.8927L303.891 67.0239C303.799 66.9694 303.697 66.9337 303.59 66.9187C303.484 66.9037 303.376 66.9097 303.272 66.9365C303.168 66.9633 303.071 67.0103 302.985 67.0748C302.899 67.1392 302.827 67.22 302.773 67.3123C302.718 67.4047 302.682 67.5069 302.667 67.6131C302.652 67.7193 302.658 67.8274 302.685 67.9313C302.712 68.0351 302.759 68.1327 302.823 68.2184C302.888 68.3041 302.969 68.3763 303.061 68.4308L309.786 72.3136C309.906 72.3963 310.048 72.4404 310.194 72.4402Z" fill="black"/>
<path opacity="0.2" d="M310.194 76.3233C310.338 76.3238 310.481 76.2864 310.607 76.2148C310.733 76.1433 310.838 76.04 310.911 75.9153C311.02 75.7243 311.05 75.4984 310.995 75.2856C310.94 75.0728 310.804 74.8899 310.616 74.7758L303.891 70.8929C303.698 70.7853 303.471 70.7574 303.258 70.8153C303.045 70.8731 302.863 71.0121 302.752 71.2025C302.645 71.393 302.617 71.6181 302.675 71.8288C302.733 72.0395 302.872 72.2188 303.061 72.3279L309.786 76.2108C309.907 76.2884 310.049 76.3277 310.194 76.3233Z" fill="black"/>
<path opacity="0.2" d="M310.194 80.2484C310.338 80.2461 310.479 80.2076 310.605 80.1363C310.73 80.065 310.836 79.9632 310.911 79.8404C311.02 79.6494 311.05 79.4234 310.995 79.2106C310.94 78.9978 310.804 78.8149 310.616 78.7008L303.891 74.818C303.698 74.7104 303.471 74.6825 303.258 74.7403C303.045 74.7982 302.863 74.9372 302.752 75.1275C302.645 75.3181 302.617 75.5431 302.675 75.7538C302.733 75.9645 302.872 76.1439 303.061 76.253L309.786 80.1358C309.91 80.2074 310.05 80.2461 310.194 80.2484Z" fill="black"/>
</g>
<path d="M630.599 101.182L456.673 0.762281C453.578 -1.02439 451.046 0.438712 451.046 4.01206V37.9307C451.091 38.7218 451.32 39.4913 451.716 40.1777C452.112 40.8641 452.663 41.4484 453.325 41.8839L630.585 144.231C631.851 144.962 632.878 144.371 632.878 142.908V105.135C632.835 104.343 632.607 103.573 632.211 102.886C631.815 102.2 631.263 101.616 630.599 101.182V101.182Z" fill="#E0E0E0"/>
<path d="M456.56 7.51518L624.353 104.361C625.083 104.843 625.69 105.488 626.127 106.245C626.564 107.002 626.819 107.85 626.871 108.723V143.415C626.823 144.286 626.568 145.134 626.128 145.887C625.688 146.641 625.074 147.278 624.339 147.748L619.542 150.463C618.76 150.854 617.898 151.058 617.023 151.058C616.149 151.058 615.287 150.854 614.505 150.463L446.712 53.5889C445.984 53.1192 445.374 52.4875 444.93 51.7432C444.486 50.9989 444.22 50.1621 444.152 49.298V14.5493C444.2 13.678 444.455 12.8306 444.895 12.0772C445.336 11.3238 445.949 10.6859 446.684 10.2163L451.482 7.48705C452.271 7.09331 453.142 6.89071 454.024 6.89559C454.907 6.90048 455.775 7.11272 456.56 7.51518V7.51518Z" fill="#3DC2EC"/>
<g opacity="0.3">
<path opacity="0.3" d="M614.505 150.435C615.292 150.817 616.156 151.016 617.03 151.016C617.905 151.016 618.769 150.817 619.556 150.435L624.339 147.776C625.075 147.31 625.689 146.675 626.129 145.924C626.57 145.173 626.824 144.327 626.871 143.457V108.722C626.837 107.808 626.561 106.92 626.069 106.148L616.221 111.775C616.682 112.521 616.94 113.375 616.967 114.251V148.93C617.023 150.449 615.982 151.293 614.505 150.435Z" fill="white"/>
</g>
<g opacity="0.5">
<path opacity="0.5" d="M444.236 14.1272C444.433 12.861 445.46 12.4108 446.727 13.1283L614.491 109.932C615.238 110.397 615.854 111.046 616.278 111.817L626.126 106.19C625.703 105.462 625.109 104.849 624.395 104.403L456.56 7.51506C455.779 7.12385 454.916 6.92017 454.042 6.92017C453.168 6.92017 452.306 7.12385 451.524 7.51506L446.727 10.2302C446.059 10.6663 445.492 11.2393 445.063 11.9111C444.633 12.5829 444.352 13.3383 444.236 14.1272Z" fill="white"/>
</g>
<path d="M446.713 13.0862L614.505 109.932C615.235 110.414 615.842 111.059 616.279 111.816C616.716 112.573 616.971 113.421 617.023 114.294V148.986C617.023 150.59 615.898 151.237 614.505 150.393L446.713 53.5889C445.984 53.1191 445.374 52.4875 444.93 51.7432C444.486 50.9989 444.22 50.1621 444.152 49.298V14.5493C444.152 12.9455 445.32 12.2843 446.713 13.0862Z" fill="#3DC2EC"/>
<path opacity="0.7" d="M446.713 13.0862L614.505 109.932C615.235 110.414 615.842 111.059 616.279 111.816C616.716 112.573 616.971 113.421 617.023 114.294V148.986C617.023 150.59 615.898 151.237 614.505 150.393L446.713 53.5889C445.984 53.1191 445.374 52.4875 444.93 51.7432C444.486 50.9989 444.22 50.1621 444.152 49.298V14.5493C444.152 12.9455 445.32 12.2843 446.713 13.0862Z" fill="white"/>
<path d="M599.494 120.188L596.821 116.573C596.787 116.507 596.744 116.445 596.695 116.39L596.61 116.277C596.474 116.145 596.293 116.07 596.104 116.066C595.935 116.066 595.822 116.193 595.752 116.404L595.203 118.416C595.128 118.639 595.128 118.881 595.203 119.105C595.277 119.352 595.407 119.579 595.583 119.766L595.836 119.991L598.903 122.172L596.596 123.579C596.56 123.566 596.52 123.566 596.484 123.579V123.649C596.426 123.732 596.386 123.826 596.367 123.926C596.348 124.025 596.349 124.127 596.371 124.226C596.381 124.505 596.475 124.774 596.638 125L598.144 127.307C598.256 127.495 598.43 127.639 598.636 127.715C598.708 127.74 598.784 127.745 598.859 127.73C598.933 127.716 599.002 127.681 599.058 127.63L599.185 127.419L600.31 124.465L601.548 128.854L601.661 129.22C601.769 129.438 601.917 129.633 602.097 129.797C602.157 129.866 602.234 129.917 602.321 129.944C602.408 129.971 602.501 129.974 602.589 129.952L604.081 129.389C604.249 129.389 604.348 129.192 604.362 128.939C604.393 128.688 604.349 128.433 604.235 128.207V128.066C604.202 127.991 604.159 127.92 604.109 127.855L601.858 123.86L604.896 125.267C605.065 125.267 605.136 125.351 605.136 125.267C605.214 125.289 605.298 125.279 605.369 125.239C605.44 125.2 605.493 125.134 605.515 125.056C605.596 124.848 605.596 124.617 605.515 124.409L604.967 121.764C604.906 121.49 604.78 121.234 604.601 121.018C604.473 120.848 604.296 120.72 604.095 120.652V120.652C604.048 120.643 604 120.643 603.954 120.652L601.323 121.215L601.97 117.572C601.97 117.445 601.97 117.346 601.97 117.262C601.958 117.007 601.89 116.757 601.773 116.53C601.672 116.304 601.505 116.113 601.295 115.982L599.452 114.913C599.384 114.858 599.3 114.828 599.213 114.828C599.126 114.828 599.041 114.858 598.974 114.913C598.907 114.976 598.855 115.052 598.821 115.137C598.787 115.222 598.772 115.314 598.777 115.405C598.777 115.489 598.777 115.602 598.777 115.757L599.494 120.188Z" fill="white"/>
<path d="M579.742 108.793L577.069 105.163C577.032 105.095 576.985 105.034 576.929 104.98V104.882C576.864 104.813 576.785 104.759 576.698 104.722C576.611 104.686 576.517 104.669 576.422 104.671C576.253 104.671 576.127 104.783 576.071 104.994L575.522 107.006C575.44 107.233 575.44 107.482 575.522 107.709C575.592 107.954 575.723 108.176 575.902 108.357C575.978 108.44 576.063 108.516 576.155 108.582L579.208 110.762L576.901 112.169H576.774C576.783 112.192 576.783 112.217 576.774 112.239C576.658 112.413 576.612 112.624 576.647 112.83C576.67 113.109 576.767 113.376 576.929 113.604L578.434 115.897C578.542 116.09 578.717 116.235 578.926 116.305C578.997 116.338 579.075 116.347 579.151 116.332C579.227 116.316 579.296 116.278 579.348 116.221L579.475 116.01L580.615 113.07L581.839 117.459L581.965 117.811C582.058 118.038 582.208 118.236 582.401 118.387C582.461 118.456 582.539 118.507 582.626 118.534C582.712 118.562 582.805 118.564 582.894 118.542L584.385 117.979C584.554 117.979 584.652 117.796 584.666 117.529C584.69 117.278 584.647 117.026 584.54 116.798V116.671C584.511 116.589 584.468 116.513 584.413 116.446L582.148 112.436L585.187 113.843C585.342 113.843 585.426 113.928 585.426 113.843C585.504 113.865 585.588 113.855 585.659 113.816C585.73 113.776 585.783 113.71 585.806 113.632C585.886 113.424 585.886 113.193 585.806 112.985L585.257 110.34C585.196 110.07 585.07 109.82 584.891 109.609C584.768 109.431 584.59 109.297 584.385 109.229H584.244L581.613 109.792L582.247 106.162C582.258 106.059 582.258 105.955 582.247 105.852C582.242 105.596 582.175 105.345 582.05 105.121C581.957 104.89 581.795 104.693 581.585 104.558L579.742 103.489C579.674 103.437 579.59 103.408 579.503 103.408C579.417 103.408 579.333 103.437 579.264 103.489C579.196 103.554 579.144 103.633 579.11 103.721C579.076 103.808 579.061 103.902 579.067 103.995C579.067 103.995 579.067 104.192 579.067 104.333L579.742 108.793Z" fill="white"/>
<path d="M559.99 97.3836L557.317 93.7539L557.177 93.571C557.17 93.5385 557.17 93.5051 557.177 93.4726C557.112 93.4039 557.033 93.3496 556.946 93.3133C556.859 93.2769 556.765 93.2593 556.67 93.2615C556.584 93.2671 556.501 93.3022 556.437 93.3611C556.373 93.42 556.331 93.4991 556.319 93.5851L555.77 95.5969C555.688 95.8243 555.688 96.0729 555.77 96.3003C555.831 96.5482 555.963 96.7729 556.15 96.9474C556.218 97.0388 556.304 97.1154 556.403 97.1725L559.47 99.3531L557.163 100.76C557.121 100.75 557.078 100.75 557.036 100.76V100.76C556.919 100.928 556.874 101.135 556.909 101.337C556.93 101.616 557.028 101.883 557.191 102.111L558.696 104.404C558.747 104.501 558.817 104.587 558.902 104.657C558.986 104.727 559.084 104.78 559.189 104.812C559.258 104.842 559.335 104.851 559.41 104.839C559.485 104.826 559.555 104.792 559.611 104.741L559.737 104.516L560.919 101.66L562.143 106.05L562.27 106.401C562.362 106.628 562.512 106.827 562.706 106.978C562.889 107.147 563.043 107.203 563.184 107.147L564.689 106.584C564.858 106.584 564.942 106.387 564.971 106.12C564.986 105.874 564.943 105.628 564.844 105.402C564.842 105.356 564.842 105.309 564.844 105.262L564.717 105.051L562.326 101.041L565.365 102.448C565.519 102.448 565.604 102.547 565.604 102.448C565.682 102.47 565.766 102.46 565.837 102.42C565.908 102.381 565.961 102.315 565.984 102.237C566.064 102.029 566.064 101.798 565.984 101.59L565.421 98.9311C565.371 98.6603 565.249 98.4077 565.069 98.1995C564.95 98.0202 564.77 97.8902 564.563 97.8337H564.492C564.446 97.8212 564.398 97.8212 564.352 97.8337L561.721 98.3965L562.354 94.7669C562.366 94.664 562.366 94.5602 562.354 94.4573C562.35 94.2009 562.282 93.9496 562.157 93.7258C562.061 93.4967 561.899 93.301 561.693 93.1631L559.85 92.1079C559.782 92.0531 559.698 92.0232 559.611 92.0232C559.524 92.0232 559.439 92.0531 559.371 92.1079C559.302 92.1718 559.249 92.2506 559.214 92.3384C559.18 92.4262 559.167 92.5206 559.174 92.6144C559.174 92.6988 559.174 92.8114 559.174 92.9661L559.99 97.3836Z" fill="white"/>
<path d="M540.239 85.9741L537.566 82.3585C537.528 82.2912 537.48 82.2296 537.425 82.1756C537.421 82.1382 537.421 82.1005 537.425 82.0631C537.287 81.9343 537.107 81.8594 536.918 81.8521C536.736 81.8521 536.623 81.9787 536.567 82.1897L536.018 84.2015C535.936 84.424 535.936 84.6683 536.018 84.8908C536.081 85.142 536.213 85.3708 536.398 85.552C536.468 85.6371 536.548 85.7128 536.637 85.7771L539.704 87.9436L537.411 89.3505C537.369 89.3403 537.326 89.3403 537.284 89.3505V89.3505C537.167 89.5184 537.122 89.7258 537.158 89.9273C537.172 90.2075 537.27 90.4769 537.439 90.701L538.944 93.0082C539.051 93.1957 539.221 93.34 539.423 93.4162C539.496 93.441 539.575 93.4463 539.652 93.4315C539.728 93.4167 539.8 93.3824 539.859 93.3318L539.985 93.1208L541.209 90.1383L542.433 94.5276L542.56 94.8934C542.658 95.1133 542.802 95.3099 542.982 95.4702C543.179 95.6249 543.334 95.6812 543.474 95.6249L544.98 95.0622C545.148 95.0622 545.233 94.8652 545.261 94.612C545.278 94.3615 545.234 94.1107 545.134 93.8805C545.132 93.8336 545.132 93.7866 545.134 93.7398L545.008 93.5287L542.743 89.5193L545.767 90.9261C545.936 90.9964 546.021 91.0105 546.021 90.9261C546.099 90.9479 546.183 90.938 546.254 90.8985C546.325 90.859 546.378 90.7931 546.4 90.7151C546.443 90.6125 546.465 90.5026 546.465 90.3915C546.465 90.2805 546.443 90.1705 546.4 90.0679L545.852 87.4231C545.796 87.15 545.675 86.8944 545.5 86.6775C545.372 86.5072 545.196 86.3797 544.994 86.3117V86.3117C544.948 86.2998 544.899 86.2998 544.853 86.3117L542.208 86.8744L542.63 83.3855C542.642 83.2827 542.642 83.1788 542.63 83.076C542.624 82.8198 542.557 82.5689 542.433 82.3444C542.336 82.1153 542.169 81.923 541.955 81.7958L540.126 80.7266C540.058 80.6718 539.974 80.6418 539.887 80.6418C539.8 80.6418 539.715 80.6718 539.648 80.7266C539.579 80.7876 539.525 80.864 539.491 80.9495C539.457 81.0349 539.443 81.1272 539.451 81.219C539.439 81.3359 539.439 81.4537 539.451 81.5707L540.239 85.9741Z" fill="white"/>
<path d="M500.735 63.1693L498.062 59.5396L497.921 59.3567C497.89 59.3301 497.866 59.2963 497.851 59.2583C497.786 59.1896 497.707 59.1354 497.62 59.099C497.533 59.0626 497.439 59.045 497.344 59.0472C497.161 59.0472 497.049 59.1598 496.979 59.3708L496.43 61.3826C496.356 61.6112 496.356 61.8574 496.43 62.086C496.491 62.3339 496.623 62.5586 496.81 62.7331C496.871 62.8253 496.953 62.9023 497.049 62.9582L500.116 65.1388L497.823 66.5457C497.773 66.5534 497.729 66.5783 497.696 66.616V66.616C497.583 66.7145 497.555 66.9114 497.569 67.1928C497.584 67.473 497.682 67.7425 497.851 67.9665L499.342 70.2597C499.449 70.4531 499.625 70.5989 499.834 70.6677C499.9 70.7074 499.976 70.7284 500.052 70.7284C500.129 70.7284 500.205 70.7074 500.271 70.6677L500.425 70.4004L501.649 67.432L502.845 71.8072L502.972 72.1589C503.066 72.381 503.211 72.5783 503.394 72.7357C503.577 72.9045 503.745 72.9608 503.886 72.9045L505.391 72.3418C505.56 72.3418 505.645 72.1448 505.673 71.8775C505.688 71.6317 505.645 71.3857 505.546 71.1601V71.0194C505.52 70.9437 505.482 70.8726 505.434 70.8083L503.155 66.7989L506.193 68.2057C506.362 68.2057 506.446 68.2901 506.446 68.2057C506.446 68.1213 506.728 68.2057 506.826 67.9947C506.869 67.8921 506.891 67.7822 506.891 67.6711C506.891 67.5601 506.869 67.4501 506.826 67.3475L506.278 64.6886C506.222 64.4198 506.101 64.1687 505.926 63.9571C505.807 63.7777 505.627 63.6477 505.42 63.5913H505.335C505.335 63.5913 505.265 63.5913 505.208 63.5913L502.564 64.154L503.239 60.5526C503.239 60.4259 503.239 60.3275 503.239 60.243C503.228 59.9876 503.161 59.7378 503.042 59.5115C502.941 59.2814 502.774 59.0859 502.564 58.9488L500.721 57.8936C500.655 57.8399 500.573 57.8105 500.489 57.8105C500.404 57.8105 500.322 57.8399 500.256 57.8936C500.186 57.9568 500.13 58.0351 500.093 58.1228C500.057 58.2105 500.04 58.3053 500.045 58.4001C500.035 58.5124 500.035 58.6254 500.045 58.7377L500.735 63.1693Z" fill="white"/>
<path d="M480.969 51.76L478.31 48.1444L478.169 47.9616L478.085 47.849C477.949 47.7168 477.768 47.6414 477.578 47.638C477.409 47.638 477.297 47.7646 477.227 47.9756L476.678 49.9874C476.61 50.2122 476.61 50.4519 476.678 50.6767C476.75 50.9275 476.885 51.1554 477.072 51.3379C477.141 51.423 477.222 51.4987 477.311 51.563L480.378 53.7436L478.085 55.1505C478.06 55.1529 478.036 55.1605 478.014 55.1726C477.992 55.1846 477.973 55.2011 477.958 55.2208V55.2208C477.895 55.3011 477.85 55.3947 477.828 55.4946C477.807 55.5945 477.808 55.6981 477.832 55.7976C477.842 56.0763 477.935 56.3456 478.099 56.5713L479.604 58.8785C479.72 59.0641 479.893 59.2073 480.097 59.2865C480.171 59.31 480.249 59.3146 480.325 59.2999C480.402 59.2851 480.473 59.2515 480.533 59.2021L480.645 58.9911L481.883 56.0086L483.107 60.3979L483.234 60.7637C483.332 60.9837 483.476 61.1803 483.656 61.3405C483.716 61.4093 483.793 61.4602 483.88 61.4876C483.967 61.5149 484.06 61.5175 484.148 61.4953L485.654 60.9325C485.808 60.9325 485.907 60.7356 485.921 60.4823C485.949 60.2328 485.91 59.9802 485.808 59.7508V59.6101C485.776 59.5372 485.738 59.4667 485.696 59.3991L483.417 55.3896L486.455 56.7964C486.624 56.7964 486.709 56.8809 486.709 56.7964C486.709 56.712 486.99 56.7964 487.089 56.5854C487.169 56.3772 487.169 56.1465 487.089 55.9383L486.54 53.2934C486.484 53.0204 486.363 52.7647 486.188 52.5478C486.055 52.3832 485.88 52.2569 485.682 52.182H485.597C485.556 52.1713 485.512 52.1713 485.471 52.182L482.826 52.7448L483.473 49.1011C483.473 48.9745 483.473 48.876 483.473 48.7916C483.46 48.5364 483.393 48.287 483.276 48.06C483.174 47.8338 483.008 47.6429 482.798 47.5114L480.955 46.4422C480.887 46.3873 480.803 46.3574 480.716 46.3574C480.628 46.3574 480.544 46.3873 480.476 46.4422C480.41 46.5051 480.358 46.5817 480.324 46.6667C480.29 46.7518 480.275 46.8431 480.279 46.9346C480.27 47.0516 480.27 47.1692 480.279 47.2863L480.969 51.76Z" fill="white"/>
<path d="M461.217 40.3646L458.558 36.735L458.417 36.5521L458.333 36.4536C458.27 36.3827 458.191 36.3269 458.104 36.2904C458.016 36.2538 457.921 36.2375 457.826 36.2426C457.658 36.2426 457.545 36.3551 457.475 36.5661L456.926 38.5779C456.858 38.8074 456.858 39.0518 456.926 39.2813C457.001 39.5266 457.137 39.7491 457.32 39.9285C457.32 39.9285 457.418 40.041 457.559 40.1536L460.626 42.3341L458.333 43.741C458.263 43.741 458.22 43.741 458.206 43.741C458.19 43.771 458.166 43.7955 458.136 43.8113C458.078 43.897 458.038 43.9935 458.019 44.0951C457.999 44.1967 458.001 44.3012 458.023 44.4022C458.041 44.6794 458.134 44.9467 458.291 45.1759L459.796 47.4691C459.904 47.6616 460.079 47.8071 460.288 47.8771C460.361 47.9085 460.442 47.9172 460.519 47.9022C460.597 47.8871 460.669 47.849 460.724 47.7926L460.837 47.5816L462.061 44.6132L463.299 49.0025L463.412 49.3542C463.516 49.5742 463.664 49.7705 463.848 49.931C463.907 49.9999 463.985 50.0508 464.072 50.0781C464.159 50.1054 464.252 50.1081 464.34 50.0858L465.845 49.5231C466 49.5231 466.099 49.3402 466.113 49.0729C466.141 48.8233 466.102 48.5707 466 48.3413C465.974 48.3008 465.95 48.2585 465.93 48.2147C465.901 48.133 465.858 48.0569 465.803 47.9896L463.538 43.9801L466.577 45.387C466.746 45.387 466.816 45.4714 466.816 45.387C466.896 45.4092 466.982 45.3997 467.055 45.3604C467.129 45.3211 467.184 45.255 467.21 45.1759C467.283 44.9664 467.283 44.7384 467.21 44.5288L466.661 41.884C466.599 41.6172 466.479 41.3673 466.31 41.1524C466.181 40.9799 466.005 40.8481 465.803 40.7726C465.79 40.7788 465.776 40.7821 465.761 40.7821C465.746 40.7821 465.732 40.7788 465.719 40.7726H465.578L462.947 41.3353L463.594 37.7057C463.594 37.5791 463.594 37.4665 463.594 37.3962C463.584 37.1408 463.516 36.8909 463.397 36.6646C463.296 36.4346 463.13 36.239 462.919 36.1019L461.076 35.0327C461.008 34.9802 460.923 34.9518 460.837 34.9518C460.751 34.9518 460.667 34.9802 460.598 35.0327C460.53 35.0978 460.478 35.1768 460.444 35.2642C460.41 35.3517 460.395 35.4455 460.401 35.5392C460.401 35.5392 460.401 35.7361 460.401 35.8768L461.217 40.3646Z" fill="white"/>
<path d="M643.598 550.129V555.067C643.598 560.864 639.842 566.674 632.203 571.133C620.681 577.83 603.743 579.574 589.534 576.17L576.394 583.767L566.265 581.516L559.357 585.525L559.02 593.882L555.292 596.048L545.936 596.892L539.226 600.677V605.376L530.785 610.285L509.331 610.356L501.635 605.952V600.972L570.148 566.097C567.218 563.264 565.499 559.407 565.351 555.335V550.34C566.363 545.529 570.373 543.025 576.76 539.297C592.01 530.42 616.798 530.335 632.105 539.1C638.984 543.095 642.895 544.868 643.598 550.129ZM622.496 544.502C620.068 543.268 617.383 542.624 614.66 542.624C611.936 542.624 609.252 543.268 606.824 544.502C602.491 547.006 602.505 551.072 606.824 553.548C609.252 554.782 611.936 555.426 614.66 555.426C617.383 555.426 620.068 554.782 622.496 553.548C626.927 550.903 626.913 546.851 622.566 544.375L622.496 544.502Z" fill="#3DC2EC"/>
<path opacity="0.2" d="M643.598 550.129V555.067C643.598 560.864 639.842 566.674 632.203 571.133C620.681 577.83 603.743 579.574 589.534 576.17L576.394 583.767L566.265 581.516L559.357 585.525L559.02 593.882L555.292 596.048L545.936 596.892L539.226 600.677V605.376L530.785 610.285L509.331 610.356L501.635 605.952V600.972L570.148 566.097C567.218 563.264 565.499 559.407 565.351 555.335V550.34C566.363 545.529 570.373 543.025 576.76 539.297C592.01 530.42 616.798 530.335 632.105 539.1C638.984 543.095 642.895 544.868 643.598 550.129ZM622.496 544.502C620.068 543.268 617.383 542.624 614.66 542.624C611.936 542.624 609.252 543.268 606.824 544.502C602.491 547.006 602.505 551.072 606.824 553.548C609.252 554.782 611.936 555.426 614.66 555.426C617.383 555.426 620.068 554.782 622.496 553.548C626.927 550.903 626.913 546.851 622.566 544.375L622.496 544.502Z" fill="black"/>
<path d="M632.189 566.083C620.681 572.78 603.729 574.524 589.534 571.12L576.394 578.787L566.251 576.522L559.357 580.545L559.006 588.902L555.292 591.068L545.95 591.912L538.663 596.006L539.254 600.396L530.813 605.305H509.359L501.649 600.902L570.134 561.117C562.016 552.577 564.197 541.618 576.732 534.317C591.982 525.44 616.756 525.355 632.077 534.12C647.397 542.884 647.453 557.164 632.189 566.083ZM622.552 539.353C620.122 538.119 617.435 537.475 614.709 537.475C611.983 537.475 609.296 538.119 606.866 539.353C602.547 541.857 602.561 545.923 606.866 548.399C609.294 549.633 611.979 550.277 614.702 550.277C617.426 550.277 620.111 549.633 622.538 548.399C626.899 545.909 626.885 541.871 622.552 539.395V539.353Z" fill="#3DC2EC"/>
<path opacity="0.3" d="M632.189 566.083C620.681 572.78 603.729 574.524 589.534 571.12L576.394 578.787L566.251 576.522L559.357 580.545L559.006 588.902L555.292 591.068L545.95 591.912L538.663 596.006L539.254 600.396L530.813 605.305H509.359L501.649 600.902L570.134 561.117C562.016 552.577 564.197 541.618 576.732 534.317C591.982 525.44 616.756 525.355 632.077 534.12C647.397 542.884 647.453 557.164 632.189 566.083ZM622.552 539.353C620.122 538.119 617.435 537.475 614.709 537.475C611.983 537.475 609.296 538.119 606.866 539.353C602.547 541.857 602.561 545.923 606.866 548.399C609.294 549.633 611.979 550.277 614.702 550.277C617.426 550.277 620.111 549.633 622.538 548.399C626.899 545.909 626.885 541.871 622.552 539.395V539.353Z" fill="white"/>
<g opacity="0.2">
<path opacity="0.2" d="M565.449 551.789L604.052 545.698C603.011 543.545 603.954 541.154 606.866 539.452C609.296 538.217 611.983 537.574 614.709 537.574C617.435 537.574 620.122 538.217 622.552 539.452C623.805 540.094 624.82 541.119 625.45 542.378L639.519 540.155C637.387 537.751 634.861 535.729 632.048 534.176C631.612 533.923 631.134 533.698 630.641 533.458L567.137 543.475C565.722 546.003 565.131 548.91 565.449 551.789V551.789Z" fill="white"/>
<path opacity="0.2" d="M641.418 557.558C642.82 555.37 643.575 552.829 643.595 550.23C643.615 547.631 642.899 545.08 641.53 542.87L625.507 545.403C624.891 546.709 623.863 547.777 622.58 548.441C620.153 549.676 617.468 550.319 614.744 550.319C612.021 550.319 609.336 549.676 606.908 548.441L606.697 548.315L566.138 554.702C566.996 557.085 568.359 559.254 570.134 561.061L552 571.612L641.418 557.558Z" fill="white"/>
</g>
<path d="M629.854 562.186C635.706 558.782 639.04 554.378 639.026 550.073C639.012 545.768 635.636 541.393 629.769 538.031C623.031 534.176 613.999 532.066 604.32 532.108C594.641 532.15 585.623 534.303 578.926 538.214C573.074 541.618 569.74 546.036 569.754 550.327C569.768 554.617 573.144 559.021 579.011 562.369C585.75 566.224 594.781 568.334 604.46 568.292C614.139 568.25 623.227 566.097 629.854 562.186ZM629.08 539.255C634.496 542.35 637.605 546.289 637.619 550.087C637.633 553.886 634.552 557.839 629.178 560.976C622.679 564.761 613.914 566.857 604.474 566.885C595.035 566.913 586.256 564.887 579.742 561.159C574.312 558.05 571.203 554.125 571.189 550.327C571.175 546.528 574.256 542.575 579.63 539.424C586.129 535.653 594.894 533.543 604.334 533.515C613.774 533.487 622.623 535.513 629.15 539.255H629.08Z" fill="#3DC2EC"/>
<path opacity="0.1" d="M618.599 571.232V576.212C609.012 578.328 599.076 578.289 589.506 576.1V571.119C599.076 573.309 609.012 573.347 618.599 571.232V571.232Z" fill="black"/>
<path opacity="0.1" d="M576.38 578.787L576.394 583.767L566.265 581.516L566.237 576.522L576.38 578.787Z" fill="black"/>
<path opacity="0.1" d="M559.343 580.545L559.357 585.525L559.02 593.882L558.992 588.902L559.343 580.545Z" fill="black"/>
<path opacity="0.1" d="M555.278 591.068L555.292 596.049L545.95 596.907L545.936 591.912L555.278 591.068Z" fill="black"/>
<path opacity="0.1" d="M530.816 605.336L530.834 610.316L509.38 610.395L509.362 605.415L530.816 605.336Z" fill="black"/>
<path opacity="0.15" d="M501.663 600.972L501.691 605.953L509.387 610.356L509.373 605.376L505.996 603.448L506.01 605.601L504.139 604.532V602.351L501.663 600.972Z" fill="black"/>
<path d="M504.139 602.351L505.996 603.448L506.01 605.601L504.139 604.532V602.351Z" fill="#3DC2EC"/>
<path opacity="0.3" d="M504.139 602.351L505.996 603.448L506.01 605.601L504.139 604.532V602.351Z" fill="white"/>
<path d="M504.139 602.351V604.531L574.354 563.649L572.483 562.566L504.139 602.351Z" fill="#3DC2EC"/>
<path opacity="0.15" d="M572.483 562.566V564.732L574.354 563.649L572.483 562.566Z" fill="black"/>
<path d="M61.5788 492.253L272.181 614.014L304.721 620.64C304.901 620.67 305.085 620.65 305.254 620.583C305.423 620.516 305.57 620.404 305.68 620.259C305.79 620.114 305.859 619.942 305.878 619.761C305.897 619.581 305.867 619.398 305.79 619.233L295.605 600.55L84.9744 478.761C78.5592 475.005 56.5564 489.355 61.5788 492.253Z" fill="#E0E0E0"/>
<path d="M84.1724 465.242C84.0065 468.27 83.129 471.216 81.6111 473.841C80.0931 476.466 77.9775 478.697 75.436 480.351C73.9602 481.324 72.1722 481.706 70.4277 481.42C70.7057 481.707 71.023 481.954 71.3703 482.152L69.2741 480.956C68.7696 480.662 68.3294 480.27 67.9798 479.802C67.6855 479.404 67.4444 478.969 67.2624 478.508C67.2624 478.367 67.1639 478.227 67.1217 478.086C67.0857 478.021 67.0618 477.949 67.0513 477.875C67.0119 477.745 66.979 477.614 66.9528 477.481C66.7883 476.771 66.7081 476.044 66.7137 475.315C66.8802 472.288 67.7566 469.344 69.2718 466.719C70.7871 464.094 72.8987 461.863 75.436 460.205C76.6117 459.469 77.9608 459.057 79.347 459.009V459.009C79.5249 458.995 79.7037 458.995 79.8816 459.009L80.3881 459.094C80.4933 459.114 80.5968 459.142 80.6976 459.178H80.8805L81.2322 459.319H81.3025L81.6402 459.488L83.469 460.529C83.1672 460.373 82.8453 460.259 82.5124 460.191C83.109 460.882 83.5628 461.683 83.8478 462.55C84.1327 463.417 84.243 464.332 84.1724 465.242V465.242Z" fill="#3DC2EC"/>
<path d="M285.56 577.408L273.25 598.792L271.168 597.596L71.3985 482.152C71.0512 481.954 70.7339 481.708 70.4559 481.42C69.313 480.048 68.7346 478.293 68.8381 476.511C69.0006 473.482 69.8768 470.534 71.395 467.909C72.9133 465.283 75.0306 463.053 77.5745 461.401C78.7452 460.666 80.0897 460.253 81.4714 460.205C81.8409 460.204 82.2092 460.247 82.5687 460.332C82.9016 460.4 83.2236 460.514 83.5254 460.67H83.6661L285.56 577.408Z" fill="#F0F0F0"/>
<path d="M279.398 578.013C284.21 575.199 288.121 577.492 288.121 583.049C287.957 586.076 287.083 589.022 285.567 591.648C284.051 594.273 281.938 596.504 279.398 598.159C274.573 600.972 270.662 598.693 270.662 593.122C270.828 590.094 271.705 587.148 273.223 584.523C274.741 581.898 276.857 579.667 279.398 578.013V578.013Z" fill="#3DC2EC"/>
<path d="M298.151 590.928L297.926 590.675L286.798 578.435L286.714 578.337L286.517 578.126L286.39 577.999C284.801 576.48 282.268 576.339 279.426 577.999C276.885 579.654 274.769 581.884 273.251 584.509C271.734 587.134 270.856 590.081 270.69 593.109C270.69 596.344 272.012 598.441 274.066 599.102H274.207C274.414 599.165 274.626 599.212 274.84 599.242H274.967L291.103 602.759C292.086 602.914 293.09 602.693 293.917 602.14C295.369 601.198 296.579 599.925 297.446 598.426C298.314 596.928 298.816 595.246 298.911 593.517C298.958 592.593 298.69 591.68 298.151 590.928V590.928Z" fill="#E0E0E0"/>
<path d="M135.353 499.794L135.072 499.625C134.734 499.507 134.372 499.471 134.018 499.52C133.663 499.569 133.325 499.701 133.032 499.906C132.13 500.499 131.38 501.296 130.843 502.232C130.305 503.168 129.995 504.217 129.937 505.294C129.91 505.64 129.96 505.987 130.085 506.311C130.209 506.634 130.403 506.926 130.654 507.165V507.165L131.02 507.39L283.774 595.641L292.496 590.604L135.353 499.794Z" fill="#455A64"/>
<path d="M271.45 588.536L283.774 595.641L292.496 590.604L275.825 580.982C273.853 583.165 272.362 585.739 271.45 588.536V588.536Z" fill="#37474F"/>
<path d="M302.527 596.794L292.426 585.68C292.344 585.575 292.255 585.477 292.158 585.385C291.033 584.259 289.232 584.175 287.178 585.385C285.387 586.558 283.896 588.135 282.826 589.99C281.755 591.845 281.136 593.925 281.016 596.063C281.016 598.342 281.931 599.833 283.366 600.283H283.464L283.872 600.368L298.686 603.589C299.239 603.677 299.806 603.557 300.276 603.252C301.093 602.717 301.774 601.999 302.263 601.153C302.751 600.308 303.035 599.359 303.089 598.384C303.107 598.095 303.066 597.805 302.969 597.532C302.872 597.259 302.722 597.008 302.527 596.794Z" fill="#3DC2EC"/>
<path opacity="0.1" d="M302.527 596.794L292.426 585.68C292.344 585.575 292.255 585.477 292.158 585.385C291.033 584.259 289.232 584.175 287.178 585.385C285.387 586.558 283.896 588.135 282.826 589.99C281.755 591.845 281.136 593.925 281.016 596.063C281.016 598.342 281.931 599.833 283.366 600.283H283.464L283.872 600.368L298.686 603.589C299.239 603.677 299.806 603.557 300.276 603.252C301.093 602.717 301.774 601.999 302.263 601.153C302.751 600.308 303.035 599.359 303.089 598.384C303.107 598.095 303.066 597.805 302.969 597.532C302.872 597.259 302.722 597.008 302.527 596.794Z" fill="black"/>
<path d="M303.089 598.398C303.037 599.374 302.754 600.323 302.265 601.169C301.777 602.015 301.095 602.733 300.276 603.266C299.811 603.57 299.249 603.691 298.7 603.603V603.603L291.216 601.957C290.048 601.718 289.274 600.551 289.274 598.82C289.36 597.264 289.81 595.75 290.587 594.399C291.364 593.048 292.446 591.898 293.748 591.04C294.261 590.637 294.895 590.417 295.549 590.417C296.202 590.417 296.836 590.637 297.349 591.04L297.546 591.266L302.555 596.766C302.75 596.987 302.899 597.246 302.991 597.527C303.082 597.808 303.116 598.104 303.089 598.398V598.398Z" fill="#3DC2EC"/>
<path opacity="0.1" d="M300.29 596.78C301.837 595.88 303.103 596.611 303.103 598.398C303.049 599.373 302.765 600.322 302.277 601.167C301.788 602.013 301.107 602.731 300.29 603.266C298.742 604.152 297.476 603.434 297.476 601.648C297.53 600.672 297.812 599.724 298.301 598.878C298.79 598.032 299.471 597.314 300.29 596.78Z" fill="black"/>
<path d="M102.292 480.731C101.942 480.565 101.552 480.497 101.166 480.534C100.78 480.571 100.411 480.712 100.098 480.942C99.2004 481.528 98.4538 482.318 97.9185 483.247C97.3832 484.176 97.0743 485.217 97.0168 486.288C96.9732 486.675 97.0351 487.066 97.1961 487.42C97.3572 487.774 97.6112 488.078 97.9312 488.3L130.556 507.137C130.305 506.898 130.11 506.606 129.986 506.282C129.862 505.959 129.811 505.612 129.838 505.266C129.896 504.188 130.207 503.139 130.744 502.203C131.282 501.268 132.032 500.471 132.933 499.878C133.227 499.673 133.565 499.541 133.919 499.492C134.274 499.443 134.635 499.479 134.973 499.596L102.292 480.731Z" fill="#FAFAFA"/>
<path d="M103.235 482.728C103.175 483.8 102.863 484.842 102.326 485.771C101.788 486.7 101.039 487.489 100.14 488.074C99.8433 488.33 99.4743 488.487 99.0844 488.523C98.6944 488.559 98.3029 488.473 97.9641 488.277C97.6254 488.08 97.3562 487.783 97.194 487.427C97.0318 487.07 96.9846 486.672 97.059 486.288C97.1165 485.217 97.4254 484.175 97.9607 483.247C98.496 482.318 99.2426 481.528 100.14 480.942C100.436 480.681 100.807 480.519 101.2 480.48C101.592 480.44 101.988 480.525 102.33 480.723C102.672 480.92 102.943 481.22 103.105 481.58C103.268 481.94 103.313 482.341 103.235 482.728V482.728Z" fill="#F5F5F5"/>
<path d="M96.3275 469.519H96.229H96.0883L83.2159 462.091L82.9204 461.922H82.8501C81.9786 461.581 81.0359 461.463 80.1074 461.579C79.1789 461.694 78.2938 462.039 77.5322 462.583C75.2432 464.071 73.3379 466.079 71.9714 468.443C70.6048 470.807 69.8157 473.46 69.6681 476.187C69.5654 477.167 69.728 478.157 70.1388 479.053C70.5496 479.949 71.1936 480.718 72.0034 481.28V481.28L85.0307 488.792H85.101C85.9849 489.163 86.9489 489.303 87.9018 489.197C88.8546 489.091 89.7646 488.743 90.5454 488.187C92.8303 486.695 94.7317 484.686 96.0955 482.323C97.4593 479.959 98.2473 477.308 98.3956 474.583C98.5101 473.633 98.3802 472.669 98.0184 471.783C97.6565 470.896 97.0745 470.117 96.3275 469.519Z" fill="#3DC2EC"/>
<path opacity="0.05" d="M96.3275 469.519H96.229H96.0883L83.2159 462.091L82.9204 461.922H82.8501C81.9786 461.581 81.0359 461.463 80.1074 461.579C79.1789 461.694 78.2938 462.039 77.5322 462.583C75.2432 464.071 73.3379 466.079 71.9714 468.443C70.6048 470.807 69.8157 473.46 69.6681 476.187C69.5654 477.167 69.728 478.157 70.1388 479.053C70.5496 479.949 71.1936 480.718 72.0034 481.28V481.28L85.0307 488.792H85.101C85.9849 489.163 86.9489 489.303 87.9018 489.197C88.8546 489.091 89.7646 488.743 90.5454 488.187C92.8303 486.695 94.7317 484.686 96.0955 482.323C97.4593 479.959 98.2473 477.308 98.3956 474.583C98.5101 473.633 98.3802 472.669 98.0184 471.783C97.6565 470.896 97.0745 470.117 96.3275 469.519Z" fill="black"/>
<path opacity="0.1" d="M90.6298 469.941C94.9629 467.436 98.48 469.462 98.48 474.471C98.3317 477.195 97.5438 479.847 96.1799 482.21C94.8161 484.574 92.9147 486.583 90.6298 488.075C86.2827 490.579 82.7657 488.553 82.7657 483.545C82.9133 480.818 83.7024 478.165 85.069 475.801C86.4355 473.437 88.3408 471.429 90.6298 469.941V469.941Z" fill="black"/>
<path d="M306.663 601.479L301.331 598.271C301.175 598.173 300.995 598.12 300.81 598.12C300.626 598.12 300.445 598.173 300.29 598.271C299.876 598.547 299.533 598.916 299.289 599.349C299.045 599.781 298.905 600.265 298.883 600.762C298.864 600.941 298.891 601.121 298.963 601.287C299.034 601.452 299.147 601.596 299.291 601.704V601.704L304.581 604.996C305.047 605.272 305.604 605.352 306.129 605.217C306.654 605.083 307.104 604.745 307.38 604.279C307.656 603.812 307.736 603.255 307.601 602.73C307.467 602.205 307.129 601.755 306.663 601.479V601.479Z" fill="#455A64"/>
<path d="M306.972 601.718L306.691 601.493C306.533 601.453 306.368 601.448 306.208 601.477C306.048 601.506 305.896 601.569 305.762 601.662C305.35 601.938 305.007 602.307 304.763 602.74C304.519 603.172 304.379 603.656 304.355 604.152C304.337 604.327 304.365 604.503 304.437 604.664C304.508 604.825 304.621 604.963 304.763 605.066H304.876H304.974C305.185 605.147 305.41 605.185 305.636 605.179C306.178 605.175 306.697 604.957 307.079 604.572C307.461 604.188 307.676 603.667 307.676 603.125C307.66 602.855 307.589 602.591 307.468 602.349C307.347 602.108 307.178 601.893 306.972 601.718Z" fill="#263238"/>
</svg>
